<?xml version="1.0" encoding="utf-8"?>
<!-- Generator: Adobe Illustrator 23.1.0, SVG Export Plug-In . SVG Version: 6.00 Build 0)  -->
<svg version="1.1" id="Layer_1" xmlns="http://www.w3.org/2000/svg" xmlns:xlink="http://www.w3.org/1999/xlink" x="0px" y="0px"
	 viewBox="0 0 383.8 286.3" style="enable-background:new 0 0 383.8 286.3;" xml:space="preserve">
<style type="text/css">
	.st0{fill:#AAAAAA;}
</style>
<title>logo_BookReview2</title>
<g>
	<polyline class="st0" points="273.9,24.1 245.6,24.1 245.6,69.8 247,69.8 259.7,58.6 272.5,69.8 273.9,69.8 273.9,57.7 	"/>
	<path class="st0" d="M341.7,225.2l-3.9-2.1c-0.3-0.1-27.8-14.6-72.3-14.6s-72,14.4-72.3,14.6l-1.3,0.7l-1.3-0.8
		c-0.3-0.2-27.8-15.9-72.2-15.9c-44.6,0-72,14.4-72.3,14.6l-4,2.1V36.6l1.6-0.7c1.4-0.6,34.3-15.1,74.6-15.1s73.3,14.5,74.7,15.1
		l0.5,0.2c8.8-3.5,37.7-14,72-14c40.3,0,73.3,14.5,74.7,15.1l1.6,0.7L341.7,225.2L341.7,225.2z M118.3,201.9
		c41.1,0,67.6,12.7,73.6,15.9c6.1-3,32.6-14.5,73.5-14.5c36.6,0,61.7,9.3,70.9,13.3V41.4c-7-2.9-36.6-14-70.9-14s-63.9,11.1-70.9,14
		v34.7h-5.3v-36c-7-2.9-36.6-14-70.9-14s-63.9,11.1-70.9,14v175.1C56.7,211.1,81.7,201.9,118.3,201.9z"/>
	<path class="st0" d="M191.9,236.7l-0.6-0.4c-0.3-0.2-27.6-16.1-71.7-16.1S48.1,234.8,47.8,235l-1.2-2.2c0.3-0.1,28.1-15,72.9-15
		c41.2,0,68.1,13.7,72.4,16.1c4.3-2.2,31.1-14.7,72.3-14.7c44.9,0,72.7,14.9,72.9,15l-1.2,2.2c-0.3-0.1-27.6-14.7-71.8-14.7
		s-71.5,14.6-71.8,14.7L191.9,236.7z"/>
	<path class="st0" d="M191.9,249l-0.6-0.4c-0.3-0.2-26.7-16-69.3-16s-69.1,14.6-69.4,14.7l-1.2-2.2c0.3-0.1,27.2-15,70.6-15
		c39.8,0,65.7,13.6,70,16c4.3-2.2,30.2-14.7,70-14.7c43.4,0,70.3,14.9,70.6,15l-1.2,2.2c-0.3-0.1-26.7-14.7-69.4-14.7
		s-69.1,14.6-69.4,14.7L191.9,249z"/>
	<path class="st0" d="M191.8,265.5l-1.4-0.9c-0.2-0.2-24.8-15.8-64.4-15.8s-64.3,14.3-64.5,14.5l-2.7-4.6c1-0.6,26-15.3,67.2-15.3
		c36.4,0,60.1,12.4,65.9,15.8c5.9-3.2,29.6-14.4,65.8-14.4c41.3,0,66.2,14.6,67.2,15.3l-2.7,4.6c-0.2-0.1-24.8-14.5-64.5-14.5
		s-64.3,14.4-64.5,14.5L191.8,265.5z"/>
</g>
<g>
	<path class="st0" d="M87.1,110c0.1-0.2,0.2-0.5,0.4-0.8v-0.1c-0.1-0.2,0-0.4,0.4-0.4s0.7,0,0.8,0c0.3,0,0.5,0,0.6,0h0.5
		c0.5,0,0.8,0.1,1.1,0.1c0.2,0.1,0.4,0.1,0.6,0.1h0.1c0.1,0,0.3-0.1,0.5,0c0.2,0,0.3,0,0.4,0c0,0,0.1,0,0.2,0s0.1,0.1,0.2,0.1
		c0.1,0.1,0.2,0.1,0.3,0.1h0.4c0.1,0,0.3,0.1,0.4,0.2h0.1c0.1,0,0.3,0.1,0.3,0.1c0.1,0,0.2,0,0.3,0s0.1,0.1,0.2,0.2
		c0,0.1,0.1,0.2,0.3,0.2c0.1,0,0.2,0.1,0.3,0.1s0.2,0.1,0.2,0.2c0.1,0.1,0.2,0.2,0.3,0.3v0.1c0,0,0.1,0.1,0.3,0.3
		c0.1,0.1,0.2,0.2,0.3,0.4c0,0,0.1,0.1,0.1,0.2s0,0.2-0.1,0.2c0,0.1,0,0.3,0.1,0.3c0,0,0.1,0.1,0.1,0.2c0.1,0.1,0.1,0.1,0.2,0.2
		s0.1,0.2,0.1,0.2c0,0.1,0,0.1-0.1,0.2h-0.1l0.3,0.9c0,0-0.1,0.1-0.2,0.2v0.1v0.1c0,0-0.1,0.1-0.2,0.1h0.1l0.2,0.3v0.1v0.1
		c0.1,0.3,0,0.5-0.2,0.6c0,0.1-0.1,0.2-0.1,0.3s-0.1,0.2-0.2,0.3c0,0-0.1,0.1-0.1,0.2s0,0.2,0,0.2l0,0c0,0.1-0.1,0.1-0.2,0.2
		l-0.1,0.1c0,0-0.1,0.1-0.1,0.2v0.1c0,0.1,0,0.2-0.2,0.4c0,0,0,0.1-0.1,0.1c-0.2,0.2-0.3,0.3-0.4,0.5v0.1c0,0.1,0,0.1,0,0.2
		c-0.1,0-0.2,0.1-0.3,0.3c0,0.2-0.1,0.3-0.1,0.3l-0.2,0.3l-0.1,0.2c-0.1,0-0.2,0.1-0.2,0.1c0,0.1,0,0.2-0.1,0.2c0,0-0.1,0.1-0.2,0.1
		s-0.1,0-0.1,0c-0.2,0-0.4,0.1-0.4,0.3v0.1c-0.1,0-0.2,0.1-0.3,0.2c-0.1,0.2-0.1,0.2-0.1,0.3c-0.1,0.1-0.1,0.2-0.2,0.2
		s-0.2,0.1-0.3,0.3c0,0-0.1,0.1-0.3,0.1c-0.2,0.1-0.3,0.2-0.3,0.4v0.1c0,0-0.1,0-0.2,0s-0.2,0.1-0.2,0.2h-0.1c0,0-0.1,0-0.2,0
		c-0.2-0.1-0.3-0.1-0.3-0.1s-0.1,0-0.1,0.1S91,121.9,91,122c0,0,0,0-0.1,0l-0.6,0.4l0.2-0.2l-0.1-0.1c0,0-0.1-0.1-0.2-0.1H90
		l-0.1,0.1l-0.1,0.1c-0.1,0-0.2,0-0.3,0c0-0.1-0.1-0.2-0.1-0.2c-0.1,0-0.1,0-0.2,0c0,0-0.1,0-0.2,0.1l-0.4-0.8l0.1-0.1
		c0-0.1-0.1-0.3-0.3-0.4c0,0-0.1-0.1-0.1-0.2s-0.1-0.2-0.2-0.2c0.1-0.1,0.1-0.2,0.1-0.2c0-0.1-0.1-0.1-0.2-0.2v-0.1l0.3-0.7l0.1-0.1
		l0.1-0.1l-0.1-0.1l0.1-0.1c0.3-0.1,0.4-0.3,0.5-0.5c0-0.1,0.1-0.2,0.3-0.4c0.2-0.1,0.3-0.2,0.3-0.3c0,0,0-0.1,0.1-0.1
		c0,0,0-0.1,0.1-0.1c0-0.1,0.1-0.2,0.2-0.2v-0.1c0.3-0.2,0.6-0.5,0.9-0.9c0.1-0.1,0.3-0.2,0.4-0.3l0.1-0.1c0-0.1,0-0.2,0-0.2
		c0.1,0,0.1-0.1,0.1-0.1c0.3-0.3,0.5-0.5,0.6-0.7c0.4-0.5,0.6-0.9,0.8-1.2c0,0,0-0.1,0.1-0.2c0-0.1,0-0.2,0-0.2s0,0,0-0.1
		c-0.1-0.1-0.2-0.2-0.3-0.2c0,0-0.1,0-0.2,0.1l-0.4-0.2v-0.1c0.1,0,0.2-0.1,0.2-0.1c-0.1,0-0.2,0-0.3,0s-0.2,0-0.2,0.1
		c0,0-0.1,0.1-0.1,0c0,0-0.1-0.1-0.1-0.2s-0.1-0.1-0.2-0.1h-0.6l-0.8-0.3c-0.1,0.1-0.2,0.1-0.3,0.1s-0.2,0-0.4-0.1
		c0,0-0.1-0.1-0.2-0.2c-0.2-0.1-0.3-0.1-0.4-0.1h-0.1h-0.1c0,0-0.2-0.1-0.3-0.2c-0.2-0.1-0.3-0.2-0.4-0.3l-0.1-0.1c0,0,0-0.1,0-0.3
		c0,0,0,0,0-0.1c0,0,0,0-0.1-0.1c0,0.1-0.1,0.2-0.2,0.3c0-0.2,0-0.5-0.1-1h-0.1C87.2,110,87.2,110,87.1,110z M91.9,100.2
		c0-0.1,0-0.4,0-0.7v-0.3c0-0.1,0-0.3,0.1-0.3v-0.3c0.1-0.4,0.1-0.6,0.2-0.7c0-0.1,0.1-0.2,0.3-0.4c0.1-0.1,0.1-0.1,0.2-0.2
		s0.1-0.1,0.2-0.2c0,0,0,0,0.1,0c0,0,0,0,0-0.1c0.3,0,0.5-0.1,0.8-0.1c0,0,0.1,0,0.1-0.1h0.2c0.1,0,0.1,0,0.2,0.1c0,0,0.1,0,0.1,0.1
		l0.3,0.1c0.1,0,0.2,0.1,0.3,0.1l0.1,0.1l0.1,0.1l0.1,0.1l0.1,0.1c0,0,0.1,0,0.1,0.1c0,0,0.1,0,0.1,0.1l0.3,0.3c0,0,0,0.1,0,0.3h0.3
		c-0.1,0.1-0.1,0.2,0,0.3c0.1,0.1,0.2,0.1,0.2,0.1c0.2,0.1,0.3,0.2,0.5,0.4c0,0,0,0.1,0.1,0.1l0.1,0.1C97,99.5,97,99.6,97,99.6
		c0,0.1,0.1,0.1,0.3,0.2c0.1,0.1,0.2,0.3,0.2,0.4c0,0.2,0.1,0.3,0.3,0.4l0.2,0.1c-0.1,0.2-0.1,0.3-0.1,0.5s0.1,0.3,0.3,0.4
		c-0.1,0.1-0.1,0.2-0.1,0.3c0,0.1,0.1,0.3,0.2,0.4c0,0.1,0.1,0.2,0.1,0.3h-0.1h0.2c0,0.1,0,0.3-0.1,0.3c0,0.1-0.1,0.2-0.2,0.2
		c-0.1,0.1-0.2,0.1-0.2,0.2s0.1,0.3,0.2,0.5c-0.1,0-0.1,0.1-0.2,0.1c0,0-0.1,0.1-0.1,0.2s0,0.1,0,0.2s0,0.2-0.1,0.3
		c-0.1,0.1-0.1,0.1-0.2,0.1c0,0-0.1,0.1-0.2,0.1l0.1,0.1c0,0.1,0,0.2-0.1,0.2s-0.1,0-0.1,0.1c-0.1,0.2-0.3,0.3-0.6,0.3h-0.4
		c-0.2,0-0.4,0-0.5,0v0.2c0,0-0.1,0-0.2,0s-0.2,0-0.2-0.1h-0.1c-0.1,0-0.1,0-0.2,0.1c-0.1-0.3-0.2-0.4-0.3-0.4c0,0-0.1,0-0.3,0.1
		c-0.1-0.2-0.2-0.3-0.3-0.3s-0.1,0-0.2,0c0,0-0.1,0-0.1-0.1c0,0,0.1-0.1,0.2-0.1c0,0-0.1-0.1-0.2-0.1l-0.5-0.2
		c0.2,0,0.3-0.1,0.4-0.2l0.1-0.1c0-0.1,0-0.1,0-0.1h-0.1c0,0-0.1,0.1-0.1,0.2c-0.1-0.2-0.3-0.5-0.5-0.9c0-0.1-0.1-0.2-0.1-0.4
		c0-0.3,0-0.4,0-0.5s-0.2-0.1-0.3-0.2l-0.1-0.4v-0.2c0.1-0.1,0.1-0.3,0-0.3c-0.1-0.1-0.2-0.2-0.4-0.3v-0.1l0.1-0.1
		c0.1-0.1,0.1-0.2,0-0.3c0,0,0-0.1-0.1-0.1c0,0,0-0.1,0-0.2s0-0.2,0-0.2S92,100.2,91.9,100.2z M97.5,118.2c0-0.1,0.1-0.2,0.3-0.4
		c0.1-0.1,0.1-0.1,0.2-0.2c0.1,0,0.1-0.1,0.2-0.1c0.4-0.1,0.6-0.2,0.8-0.2c0.2,0,0.3-0.1,0.4-0.1s0.1,0,0.2,0s0.1,0,0.2,0
		c0,0,0.1,0,0.1,0.1s0.1,0,0.2,0s0.3,0.1,0.5,0.1c0.2,0.1,0.3,0.1,0.5,0.2h0.1c0.1-0.1,0.2-0.1,0.3,0s0.1,0.2,0.1,0.2
		c0.1,0.1,0.2,0.1,0.3,0.1c0,0,0.1,0.1,0.2,0.1s0.2,0.1,0.3,0.2v0.1l0.1,0.3c0.1,0,0.2,0,0.4,0c0,0.1-0.1,0.2-0.1,0.2s0,0,0,0.1
		c0,0,0,0,0.1,0s0.1,0.1,0.1,0.2c-0.1,0.1-0.1,0.2,0,0.4c0,0.1,0.1,0.2,0.1,0.2l0.1,0.1c0,0,0.1,0.1,0.1,0.2c-0.1,0.1-0.1,0.2,0,0.2
		s0.1,0.2,0.1,0.2s0,0.1,0,0.2s0,0.1,0,0.2c0,0-0.1,0.1-0.1,0.3c0,0.1-0.1,0.3-0.1,0.4s0,0.2,0.1,0.3c0,0.1,0,0.2-0.1,0.2
		c-0.1,0.1-0.1,0.1-0.2,0.1h-0.4c-0.1,0-0.2,0-0.3,0.1c0,0-0.1,0-0.1,0.1h-0.1c-0.1,0-0.3,0.1-0.5,0.2s-0.3,0.2-0.3,0.3
		c0,0-0.1-0.1-0.2-0.1c0,0.1,0,0.2,0,0.3c-0.1-0.2-0.2-0.3-0.3-0.4c-0.1,0-0.3-0.1-0.5-0.1h-0.6l0.3-0.3c0.1-0.1,0.1-0.1,0.1-0.2
		c0,0,0,0-0.1,0l0,0l-0.3,0.3v-0.1v-0.1c0,0-0.1-0.1-0.2-0.1h-0.1c0,0-0.2,0-0.5-0.1c0.1,0,0.2-0.2,0.4-0.4v-0.1
		c0-0.1-0.1-0.2-0.2-0.3c-0.1-0.1-0.2-0.1-0.3-0.1h-0.1c0,0,0-0.1,0-0.2s0-0.2,0-0.3l-0.3-0.2c0,0-0.1-0.2-0.1-0.4l0.1-0.1
		c0-0.1,0.1-0.1,0.1-0.2c0-0.2-0.1-0.4-0.2-0.4c-0.1-0.1-0.2-0.2-0.3-0.3c-0.1-0.1-0.2-0.2-0.3-0.2
		C97.6,118.4,97.5,118.3,97.5,118.2C97.5,118.3,97.5,118.2,97.5,118.2z M102.2,128.3l0.1-0.9c0,0,0.1-0.1,0.1-0.2
		c0.1-0.1,0.1-0.1,0.1-0.2l0.7-0.4c0.1,0,0.3-0.1,0.5-0.2s0.4-0.1,0.6-0.2c0,0,0.1,0,0.2,0s0.1-0.1,0.2-0.1c0.1-0.1,0.2-0.1,0.3-0.1
		s0.2,0,0.3,0s0.2,0,0.3-0.1c0.1,0,0.3,0,0.5-0.1s0.3-0.1,0.5-0.1c0.1,0,0.2,0,0.4-0.1c0.1-0.1,0.3-0.1,0.4-0.2l0.1-0.1
		c0,0.1,0.1,0.1,0.2,0.1s0.1-0.1,0.1-0.1c0.1-0.1,0.3-0.1,0.3,0h0.4c0.1-0.1,0.3-0.2,0.4-0.2c0.2,0,0.3,0,0.5,0c0.1,0,0.2,0,0.4,0
		c0.2,0,0.4,0.1,0.5,0.2l0,0h0.6c0,0,0.1,0.2,0.2,0.4l0,0l0.4,0.6c0.1,0,0.2,0,0.2,0s0.1,0.1,0.1,0.2s0.1,0.3,0.3,0.4
		c0.2,0.1,0.2,0.2,0,0.4c0,0.1,0.1,0.1,0.1,0.2s0.1,0.2,0.1,0.3l0.2-0.1c-0.1,0.1-0.1,0.2-0.1,0.3s0,0.2,0.1,0.2
		c0.1,0.1,0.1,0.2,0.1,0.2c0,0.1,0.1,0.3,0.1,0.3v0.5c0.1,0,0.2,0.1,0,0.3c0,0.1,0,0.2,0.1,0.4c0,0.1,0.1,0.3,0.1,0.5
		c0,0.1,0.1,0.2,0.1,0.3s0.1,0.2,0.1,0.3l-0.3,0.1c0.2,0.2,0.3,0.4,0.4,0.6c0,0.2,0.1,0.4,0.1,0.5c0,0,0,0.1,0,0.2
		c0,0.1,0,0.1,0,0.2c0,0,0,0.1,0.1,0.2c0,0.1,0,0.2,0,0.3v0.1c0,0.1,0,0.2,0,0.4s0,0.4,0,0.4s0,0,0,0.1c0.1,0.2,0.1,0.4,0.1,0.5
		s0,0.2-0.1,0.4c0,0,0,0.1,0,0.3v0.1c0,0.2,0,0.3,0.1,0.4c0,0.3,0,0.4-0.2,0.4c0,0.1,0,0.2,0,0.3v0.1c0,0,0,0.1,0,0.2
		c0,0.2-0.1,0.4-0.1,0.6l0.1,0.2c-0.1,0-0.2,0.1-0.2,0.2v0.1c0,0.1,0,0.1,0,0.1s-0.1,0.1-0.2,0.2c-0.1,0.1-0.1,0.1-0.1,0.2v0.1
		c-0.1,0.1-0.2,0.2-0.3,0.4c0,0.2-0.1,0.3-0.1,0.3c0,0.1,0,0.2-0.1,0.3s-0.1,0.1-0.1,0.2c0,0,0,0,0,0.1v0.1v0.1c0,0,0,0.1-0.1,0.1
		s-0.2,0.1-0.4,0.2c-0.1,0.2-0.2,0.3-0.2,0.3c0,0.1,0,0.2,0.1,0.3h-0.1h-0.1c0,0-0.1,0-0.2,0.1c-0.1,0-0.1,0.1-0.1,0.1v0.1
		c0,0,0,0.1-0.1,0.1c0,0-0.1,0.1-0.2,0.1c0.1,0.1,0.2,0.1,0.3,0.2c-0.3,0-0.4,0.2-0.4,0.4c0,0,0,0.1-0.1,0.1
		c-0.2,0.1-0.3,0.2-0.3,0.4v0.1c-0.2,0-0.3,0-0.4,0.1s-0.2,0.2-0.4,0.3c-0.1,0.1-0.2,0.2-0.3,0.3l0,0v0.2c-0.1,0-0.2,0-0.2,0h-0.1
		h-0.1c0,0,0,0.1-0.1,0.2c0,0.1-0.1,0.2-0.1,0.3c-0.1,0.1-0.1,0.1-0.2,0.2L108,144v0.3c-0.1-0.1-0.3-0.1-0.3,0
		c-0.1,0.1-0.2,0.2-0.2,0.2c-0.1-0.1-0.2-0.1-0.4,0c-0.1,0.1-0.2,0.2-0.2,0.3c-0.3,0-0.5,0-0.8,0.1s-0.4,0.2-0.5,0.2
		c0,0-0.1,0-0.2,0.1c-0.1,0-0.1,0-0.2,0s-0.3,0-0.7,0c0,0-0.1,0-0.2-0.1c-0.1,0-0.2-0.1-0.2-0.1v-0.1c0.4-0.5,0.6-0.7,0.6-0.7
		s0.1-0.2,0.3-0.4c0,0,0.1-0.1,0.1-0.2c0.1-0.1,0.1-0.1,0.2-0.2v-0.1v-0.1l0.1-0.1c0-0.1,0.1-0.1,0.1-0.2c0,0,0-0.1,0.1-0.3
		c0-0.1,0.1-0.3,0.2-0.3v-0.1v-0.1c0,0,0,0,0-0.1c0,0,0,0,0-0.1c0.1-0.1,0.3-0.3,0.4-0.6s0.2-0.5,0.3-0.6l0,0c0-0.1,0-0.2,0.1-0.3
		c0,0,0.1-0.1,0.2-0.1s0.1-0.1,0.2-0.1c0-0.1,0-0.3,0-0.3c0-0.1,0.1-0.1,0.3-0.2c0.2-0.1,0.3-0.2,0.3-0.5c0-0.1,0.1-0.2,0.2-0.3
		s0.1-0.2,0.2-0.2c0,0,0.1-0.1,0.1-0.2c0-0.1,0-0.1,0.1-0.2c0.1-0.2,0.2-0.3,0.3-0.3l0.1-0.3c0.2-0.3,0.4-0.6,0.4-1
		c0-0.1,0-0.1,0.1-0.2c0.1-0.2,0.2-0.4,0.2-0.6c0-0.3,0-0.5,0.1-0.6v-0.1c-0.1-0.1-0.1-0.2,0-0.3s0.1-0.2,0.1-0.2l-0.1-0.5V133
		c0,0,0,0,0-0.1c0,0,0,0,0-0.1c0-0.2,0-0.4-0.1-0.5s-0.1-0.2-0.1-0.3s0-0.1,0-0.2c0-0.1,0-0.1,0.1-0.2c0,0-0.1-0.1-0.1-0.2
		c0-0.1-0.1-0.2-0.1-0.2s0-0.1,0.1-0.2c0,0,0,0,0-0.1s0,0,0,0c-0.1-0.1-0.1-0.2-0.1-0.4v-0.2v-0.1v-0.1c0-0.1,0-0.2,0-0.4
		c0,0,0-0.1-0.1-0.1c0,0,0-0.1,0-0.2l-0.1-0.7l-0.1-0.8h-0.1c-0.1,0-0.3-0.1-0.3-0.1c0,0.3-0.2,0.3-0.4,0.1v0.1c0,0-0.1,0-0.3,0
		c-0.2,0-0.4,0-0.6,0.1l-0.4,0.1v-0.1v0.2c0,0,0,0-0.1,0s0,0,0,0c-0.3,0-0.5-0.1-0.6-0.1c0,0.2-0.1,0.3-0.3,0.1l0,0c0,0,0,0-0.1,0
		c-0.2,0-0.4,0-0.5,0.1h-0.2l-0.4-0.1h-0.2c0,0-0.1,0-0.2,0s-0.1,0-0.1,0.1c-0.1,0-0.2,0-0.3,0h-0.4c0,0,0,0-0.1,0.1v0.1
		c0,0.1-0.1,0.3-0.1,0.5s-0.1,0.3-0.2,0.5c0,0,0,0-0.1,0.1s-0.1,0-0.1,0c-0.2-0.1-0.4-0.2-0.4-0.5c0-0.2-0.1-0.4-0.2-0.6
		c0,0,0-0.1,0-0.2C102.2,128.5,102.2,128.4,102.2,128.3C102.2,128.4,102.2,128.4,102.2,128.3z M110.7,120.4c0,0-0.1,0-0.3,0.1
		c-0.1,0-0.2,0.1-0.2,0.3v0.1c0,0,0.1,0,0.1,0.1s-0.1,0.3-0.3,0.4c-0.1,0.1-0.3,0.2-0.4,0.2c0,0-0.1,0-0.1,0.1s-0.1,0.1-0.1,0.1
		c-0.1,0.1-0.2,0.1-0.4,0.1c-0.1,0-0.3,0-0.4-0.1c0,0-0.1-0.1-0.3-0.2c0,0,0,0,0-0.1c0,0,0,0-0.1,0l-0.1-0.1c0-0.1-0.1-0.1-0.1-0.1
		c-0.1,0-0.2-0.1-0.2-0.2c-0.1-0.1-0.1-0.2-0.1-0.3v-0.1v-0.1c0,0,0.1-0.1,0.2-0.1c0,0,0,0-0.1,0h-0.1c0,0-0.1-0.1-0.1-0.2
		s0-0.1,0-0.2l0,0c-0.1-0.1-0.1-0.2-0.1-0.3c0,0,0-0.1,0-0.2s0-0.1,0-0.2h-0.1c-0.1,0-0.1-0.1-0.1-0.1v-0.1l0.1-0.1
		c0,0,0.1-0.1,0.1-0.2s0-0.2,0-0.2c-0.1,0-0.1-0.1-0.1-0.1s0-0.1,0.1-0.1l0.1-0.3l-0.5-0.6v-0.1v-0.1c-0.1,0-0.1-0.1-0.2-0.3
		c0-0.3,0-0.5-0.1-0.7c0,0,0.1-0.1,0.1-0.2s0-0.1-0.1-0.2c0-0.1-0.1-0.2-0.1-0.3c0-0.1-0.1-0.1-0.1-0.2s-0.1-0.2-0.1-0.2
		c0-0.1-0.1-0.1-0.2-0.1s-0.2,0-0.2,0s-0.1,0-0.1-0.1l-0.1-0.1c0,0-0.1,0-0.1-0.1c-0.1,0-0.1-0.1-0.1-0.1s0-0.1-0.1-0.1
		c0-0.1,0-0.1,0.1-0.2c0-0.1-0.1-0.2,0-0.2c0,0,0-0.1,0-0.2s0.1-0.2,0.2-0.3c0.1,0,0.2-0.1,0.3-0.3c0.1-0.2,0.3-0.3,0.5-0.3h0.7
		c0,0,0.1,0,0.1-0.1h0.3c0.1,0.1,0.3,0.2,0.5,0.2c0.2,0.1,0.4,0.2,0.6,0.3c0,0,0.2,0.2,0.5,0.4c0,0,0,0.1,0.1,0.1
		c0,0.1,0.1,0.1,0.1,0.2c0.1,0.1,0.2,0.1,0.2,0.2c0.1,0.1,0.2,0.2,0.3,0.3c0.1,0.1,0.1,0.2,0.2,0.3c0.1,0,0.1,0.1,0.1,0.1v0.5
		c0,0.1,0.1,0.2,0.2,0.2s0.1,0,0.1,0l0.1-0.1h0.1c0,0.1,0.1,0.1,0.2,0.1s-0.1-0.1,0-0.1s0.2,0,0.4,0c0,0,0.1,0,0.2,0s0.1,0,0.2-0.1
		l0.1,0.1c0.2-0.1,0.5-0.2,0.7-0.3c0,0.1,0.1,0.2,0.1,0.3c0.3-0.2,0.5-0.3,0.7-0.3c0.5,0,0.8,0,0.9,0l0,0c0,0-0.1,0-0.1-0.1
		c0,0-0.1,0-0.1-0.1c-0.4-0.2-0.6-0.4-0.6-0.4s0-0.1-0.1-0.1c0,0,0,0-0.1,0s-0.2,0-0.2-0.1s-0.1-0.1-0.1-0.2s0-0.2,0-0.3v-0.1
		c0,0,0-0.1,0.1-0.2c0-0.1,0.1-0.1,0.1-0.1c0.5-0.2,0.7-0.4,0.8-0.4c0.2,0,0.4-0.1,0.5-0.1s0.3,0,0.6,0.1h0.3c0.2,0,0.4,0,0.5,0.1
		c0.1,0,0.2,0.1,0.3,0.3c0,0,0.1,0,0.2,0s0.1,0,0.2,0s0.2,0.1,0.4,0.3c0.2,0.1,0.3,0.3,0.5,0.3l0.3,0.1c0.1,0.1,0.1,0.2,0.2,0.4
		c0.1,0.2,0.2,0.3,0.3,0.4c0,0,0.1,0.1,0.2,0.2s0.1,0.2,0.1,0.3c0,0.1,0.1,0.2,0.1,0.3s0.1,0.2,0.1,0.3c0,0,0.1,0.1,0.1,0.2
		s0.1,0.2,0.1,0.3v0.1c-0.1,0.2,0,0.3,0.2,0.5c-0.2,0.2-0.1,0.3,0.1,0.3l-0.3,0.6c0,0,0,0.1,0,0.2s0,0.2,0,0.2s0,0.1,0,0.2
		s0,0.2,0,0.3c0,0.1-0.1,0.2-0.1,0.4c0,0.2-0.1,0.3-0.1,0.5c0,0,0,0.2,0,0.3c0,0.2,0,0.3-0.1,0.4c0,0-0.1,0.2-0.1,0.5
		c-0.2,0.1-0.3,0.3-0.4,0.6c0,0,0,0-0.1,0.1c0,0-0.1,0-0.1,0.1c0,0-0.1,0.1-0.2,0.1s-0.1,0.1-0.1,0.2h-0.1l-0.6-0.2
		c-0.1,0-0.2,0-0.2,0c-0.1,0.1-0.2,0.1-0.3,0l-0.6-0.8c0,0,0-0.1,0-0.2s0-0.1,0-0.2s0-0.2-0.1-0.2c-0.1-0.1-0.2-0.3-0.2-0.4
		s0-0.2,0.1-0.3c-0.1-0.1-0.1-0.2-0.1-0.3c0-0.1,0-0.2,0-0.2c0-0.1,0-0.2-0.1-0.3c0-0.1-0.1-0.2-0.1-0.3l-0.4-0.3
		c0-0.1-0.1-0.2-0.1-0.2s-0.2,0.1-0.5,0.2v-0.3l-0.7,0.1c0,0-0.1-0.1-0.2-0.1c-0.1-0.1-0.1-0.1-0.2-0.1c0,0-0.2,0-0.4,0.1
		c0-0.1-0.1-0.1-0.1-0.2c-0.1,0-0.1,0-0.2,0.1c-0.1,0-0.1,0.1-0.2,0.1c0-0.1,0.1-0.3,0.1-0.3c-0.1,0-0.2,0.1-0.3,0.1
		c-0.1,0-0.2,0.1-0.2,0.1c-0.1,0-0.2,0.1-0.3,0.1c-0.1,0-0.1-0.1-0.2-0.2s-0.2-0.1-0.3-0.1c0,0-0.1,0.1-0.2,0.1s-0.1,0.1-0.2,0.1
		s-0.1,0-0.2-0.1c0.1,0.1,0.1,0.3,0.1,0.4s0,0.2-0.1,0.3v0.1c0.1,0.2,0.1,0.3,0.1,0.4s-0.1,0.3-0.2,0.5c0,0,0,0.1,0,0.2
		C110.7,120.2,110.7,120.3,110.7,120.4C110.7,120.3,110.7,120.3,110.7,120.4z"/>
	<path class="st0" d="M126,125L126,125c0.1,0.1,0.2,0.2,0.3,0.2c0,0,0,0,0.1,0l-0.1-0.1c0-0.1-0.1-0.1-0.1-0.1
		c0-0.3,0.1-0.6,0.3-0.8c0-0.1,0.1-0.2,0.2-0.3c0.1-0.2,0.2-0.3,0.4-0.3c0.1,0.1,0.3,0.1,0.4,0.1c0.2,0,0.5-0.1,0.7-0.2h0.5
		c0,0,0,0,0.1,0c0,0,0,0,0-0.1c0.1,0.1,0.2,0.1,0.3,0.1s0.2,0,0.2,0c0.3,0,0.5,0,0.6,0c0,0,0.2,0.1,0.3,0c0.2,0,0.3-0.1,0.3-0.1
		c0.1,0,0.2,0,0.4,0c0.1,0.1,0.3,0.1,0.3,0c0,0,0.2-0.1,0.3-0.1h0.3h0.1h0.1c0.1,0.1,0.2,0.1,0.3,0.1s0.2,0,0.3-0.1
		c0.1,0,0.2,0,0.3,0s0.2,0,0.3,0c0.1-0.1,0.2-0.1,0.2-0.1s0.1,0,0.4,0.1c0.1,0,0.2,0,0.3-0.1s0.2-0.1,0.3-0.1s0.2,0,0.3,0.1
		c0,0,0.1,0,0.2,0c0.1,0,0.2,0,0.2,0s0.1,0,0.2,0c0.1,0,0.1,0,0.2,0h0.7c0.1,0,0.2,0,0.3,0s0.2,0,0.3,0l0.2-0.1
		c0.4,0.1,0.7,0.1,0.8,0.1s0.3,0,0.4,0h0.1c0.1,0.1,0.3,0.1,0.5,0.2c0.2,0,0.4,0.1,0.5,0.2s0.3,0.2,0.5,0.3c0.2,0.1,0.4,0.2,0.4,0.2
		c0.1,0,0.2,0.1,0.3,0.2s0.2,0.1,0.3,0.2s0.2,0.2,0.1,0.3c-0.1,0.1-0.1,0.2-0.1,0.2s-0.1,0.1-0.3,0.2c-0.1,0.1-0.2,0.2-0.3,0.3
		c0,0-0.1,0-0.1,0.1c-0.1,0-0.1,0-0.1,0.1c0,0-0.1,0.1-0.2,0.1c-0.1,0-0.1,0.1-0.2,0.1c-0.1,0.1-0.3,0.1-0.4,0.2
		c-0.2,0.1-0.3,0.1-0.5,0.2h-0.1c0.1,0.1,0.1,0.2-0.1,0.3c-0.1,0-0.2,0.1-0.2,0.1l-0.8-0.1l-0.1,0.1c0,0.1-0.1,0.1-0.2,0.1
		c-0.1,0-0.2,0-0.2,0s0,0-0.1,0s0,0-0.1,0c0,0-0.1,0-0.2,0.1c-0.1,0-0.1,0-0.2,0c0.1,0,0.1-0.1,0.1-0.2c-0.1,0-0.2,0-0.3,0.1
		c-0.1,0-0.2,0-0.3,0.1l0,0l0,0l0,0l-0.1,0.1c-0.3,0-0.4-0.1-0.5-0.2c-0.3,0.1-0.5,0.1-0.8,0.2c-0.1-0.1-0.2-0.2-0.3-0.2h-0.1
		c-0.1,0.1-0.3,0.2-0.6,0.2c-0.2,0-0.3,0-0.4,0c-0.1,0-0.3,0-0.5,0c-0.2-0.1-0.3-0.1-0.4-0.1h-0.4c-0.2,0.1-0.3,0.1-0.4,0.1
		c-0.1,0-0.2,0-0.4-0.1c0-0.1-0.1-0.1-0.2-0.1c-0.1,0-0.1,0-0.2,0c-0.1,0-0.1,0.1-0.2,0.1c-0.1,0-0.1,0-0.2-0.1
		c-0.1,0-0.1,0.1-0.2,0.1c0,0,0,0,0-0.1s0-0.1,0-0.1c-0.1,0-0.2-0.1-0.2-0.1c0,0.1-0.1,0.2-0.3,0.2l-0.2-0.1c0,0-0.1,0-0.2,0
		c-0.1,0-0.1,0-0.2,0c-0.1,0-0.3,0.1-0.3,0c-0.1,0-0.1-0.1-0.1-0.2c0,0,0-0.1,0-0.2c-0.1,0-0.1,0.1-0.2,0.1l-0.1,0.1
		c0-0.1-0.1-0.2-0.2-0.2l-0.3,0.1c0,0-0.1,0.1-0.3,0.1c0-0.1,0-0.1-0.1-0.2c0-0.1-0.1-0.1-0.1-0.1c-0.1,0-0.2,0-0.3,0v-0.1l-0.1-0.1
		c0.1,0,0.2,0,0.3,0c-0.1,0-0.1-0.1-0.2-0.1l-0.1-0.1c-0.1,0-0.2,0-0.4,0c-0.1-0.1-0.2-0.1-0.3-0.1c-0.1,0-0.3-0.1-0.4-0.1
		c0,0,0-0.1-0.1-0.1s-0.1-0.1-0.1-0.1v-0.1C125.5,125.3,125.9,125,126,125z M126.4,108.3c0-0.1,0-0.3,0-0.4c0.1-0.3,0.2-0.6,0.3-0.6
		c0.1-0.1,0.2-0.2,0.3-0.3c0.2-0.1,0.3-0.2,0.3-0.2c0.2-0.1,0.3-0.1,0.4-0.1s0.1,0,0.2,0c0.1,0,0.2,0,0.2-0.1c0.1,0,0.4-0.1,0.6-0.1
		c0.1,0,0.2,0,0.3-0.1c0.1,0,0.2-0.1,0.3-0.1h0.2l0.7-0.1l0.3-0.1h0.2c0.1,0,0.3-0.1,0.4-0.1l0.3,0.1c0.5-0.2,0.9-0.4,1.2-0.4
		c0.1,0,0.2-0.1,0.3-0.1s0.2-0.1,0.3-0.1s0.2,0,0.3,0.1c0.1,0,0.2,0,0.2,0c0.1-0.1,0.3-0.1,0.5-0.1s0.4,0,0.5-0.1h0.1
		c0.1,0.1,0.2,0.1,0.3,0s0.3-0.1,0.4-0.1h0.3c0.4,0,0.6,0.1,0.6,0.1h0.3c0.2,0,0.4,0.1,0.4,0.2c0,0,0.1,0.1,0.2,0.1
		c0.1-0.1,0.2-0.1,0.3,0.1c0,0,0,0.1,0.1,0.1s0.2,0.1,0.3,0.2s0.2,0.1,0.2,0.2s0.1,0.1,0.3,0.2c0.1,0.1,0.2,0.2,0.2,0.3l0,0v0.1
		c0,0,0,0.1,0.1,0.1l0.5,0.5c0,0,0,0,0,0.1c0,0,0,0,0.1,0s0.2,0,0.2,0.1s0.1,0.2,0.1,0.3c0,0.1,0,0.3,0.1,0.6c0,0.1,0,0.1,0.1,0.2
		c0.1,0,0.1,0.1,0.1,0.1s0,0.1,0,0.2c0,0.3,0.1,0.4,0.2,0.5c0,0,0.1,0.1,0.2,0.3l0.1,0.1c0,0,0,0.1,0,0.3c0,0.1,0,0.2,0.1,0.3
		c0.1,0.1,0.1,0.2,0.1,0.4v0.3c0,0.1,0,0.2,0.1,0.3c0.1,0.2,0.1,0.3,0,0.4c0,0,0,0,0,0.1c0,0,0,0,0,0.1c0.1,0.2,0.1,0.5,0.1,0.9
		c0,0.1-0.1,0.3-0.1,0.3s0,0.1,0.1,0.2c0,0.2,0,0.3-0.1,0.4c0,0,0,0,0,0.1v0.1c0,0.1,0,0.1,0.1,0.2c0,0,0,0.1,0.1,0.1c0,0,0,0-0.1,0
		c0,0,0,0-0.1,0.1s-0.1,0.2-0.1,0.3v-0.1c0.1,0.1,0,0.4-0.2,0.8c0,0.1-0.1,0.1-0.1,0.2c-0.1,0-0.1,0.1-0.1,0.1
		c-0.1,0.1-0.1,0.1,0,0.2c0,0.1,0,0.2-0.1,0.3c-0.1,0.1-0.2,0.2-0.2,0.3c0,0.2-0.2,0.3-0.4,0.5s-0.4,0.3-0.4,0.5
		c0,0.1-0.1,0.1-0.2,0.1c-0.1,0-0.1,0-0.2-0.1c-0.1-0.2-0.3-0.4-0.3-0.5c0,0,0-0.1,0-0.2s0-0.2-0.1-0.3c0-0.2-0.2-0.3-0.3-0.3H138
		c0.1-0.1,0.2-0.1,0.1-0.2c0-0.1-0.1-0.2-0.1-0.3c-0.2-0.3-0.3-0.5-0.4-0.6v-0.1c0.1-0.2,0-0.4-0.1-0.5l-0.1-0.1
		c0-0.1-0.1-0.1-0.1-0.2c0,0,0-0.1,0.1-0.2v-0.1c-0.1,0-0.2-0.1-0.2-0.2s0-0.2,0-0.3c0-0.1,0-0.2,0-0.4v-0.1c0-0.2,0-0.4-0.1-0.6
		s-0.2-0.4-0.2-0.7c0,0,0-0.1-0.1-0.1c-0.1-0.1,0-0.1,0.2-0.2c-0.2-0.2-0.3-0.3-0.3-0.4c-0.1-0.1-0.1-0.2-0.1-0.4v-0.1
		c-0.1,0-0.2,0.1-0.2,0.1c0-0.1,0-0.2,0-0.2l-0.1-0.1h-0.2c0,0,0.1-0.1,0.1-0.3c-0.1,0-0.3,0-0.5,0h-1v0.2c-0.1,0-0.1,0-0.1-0.1
		c-0.1-0.1-0.2-0.1-0.3-0.1s-0.1,0-0.2,0.1h-0.2c-0.1,0-0.2,0-0.3,0l-0.5-0.1c0,0.1-0.1,0.2-0.2,0.2c-0.1,0-0.1,0-0.2,0
		c-0.1,0-0.1-0.1-0.1-0.1c-0.1,0-0.3,0-0.5,0.1c0,0-0.1,0-0.2,0c-0.1,0-0.1,0-0.2,0.1l-0.4,0.1c-0.1-0.1-0.2-0.2-0.3-0.2
		s-0.3,0.1-0.5,0.3l-0.1-0.1c0-0.1-0.1-0.2-0.1-0.2s-0.1,0-0.2,0.1c0,0-0.1,0-0.3-0.1l-0.1-0.1l-0.1,0.1l-0.1-0.1l-0.1-0.1
		c-0.1,0-0.2,0.1-0.2,0.2c0,0-0.1,0-0.1-0.1c0,0,0,0,0-0.1c0,0,0,0,0.1-0.1h-0.1c-0.1,0-0.3,0-0.5,0s-0.3-0.1-0.4-0.1
		c0-0.1-0.1-0.1-0.3-0.1c-0.1,0-0.3,0-0.4-0.1c-0.1,0-0.3-0.1-0.4-0.2c-0.1,0-0.1-0.1-0.1-0.1C126.7,108.8,126.5,108.5,126.4,108.3z
		 M133.3,118.7c0-0.1-0.1-0.3-0.1-0.4s0-0.3,0.1-0.3c0-0.1,0-0.3,0-0.6c0.1,0,0.2,0,0.3-0.1s0.1-0.1,0.2-0.2c0,0,0.1-0.1,0.2-0.1
		c0.1,0,0.1,0,0.2-0.1c0.1,0,0.2,0,0.2,0c0.2-0.1,0.3,0,0.4,0.1c0,0.1,0.2,0.2,0.3,0.3l0.6,0.6l0.1,0.1c0,0,0,0.1,0.1,0.2
		c0,0.1,0.1,0.1,0.1,0.2c0.2,0.2,0.3,0.4,0.5,0.7c0,0,0.1,0.1,0.1,0.2s0.1,0.2,0.1,0.2l0,0c-0.1,0.2-0.1,0.3,0,0.4s0.2,0.1,0.2,0.2
		v0.4c0,0.2,0,0.4-0.1,0.4c-0.2,0.1-0.2,0.2-0.1,0.3c0.1,0.1,0.1,0.1,0.1,0.2s-0.1,0.2-0.1,0.3c-0.2,0.2-0.4,0.3-0.6,0.3H136v0.1
		l-0.1,0.1l-0.1,0.1c0,0,0,0-0.1,0s-0.1,0-0.1,0c0,0.2-0.1,0.3-0.4,0.3h-0.1H135c0,0,0,0-0.1,0c0,0,0-0.1-0.1-0.1
		c-0.1-0.1-0.2-0.2-0.3-0.3v-0.1c0,0,0,0,0-0.1s-0.1-0.3-0.3-0.3c0,0-0.1-0.1-0.1-0.2s0-0.2-0.1-0.2c0-0.1-0.1-0.1-0.1-0.1
		s-0.1-0.1-0.2-0.2c-0.1-0.1-0.1-0.2-0.1-0.3c0-0.1,0-0.1,0-0.2c0,0,0.1-0.1,0-0.2c0-0.1-0.1-0.2-0.1-0.2v-0.3c0-0.2,0-0.4-0.1-0.5
		c0,0-0.1-0.1-0.1-0.3C133.3,118.9,133.2,118.8,133.3,118.7c-0.1-0.2-0.1-0.3-0.1-0.3S133.4,118.8,133.3,118.7z M148.3,122.9
		c0.1,0.1,0.1,0.2,0.1,0.3c0,0.1-0.1,0.2-0.3,0.3c0.1,0.2,0.2,0.3,0.2,0.5c0,0.1,0,0.3-0.1,0.6c0,0.1-0.1,0.3-0.1,0.5
		c0,0.1-0.1,0.1-0.1,0.2s-0.1,0.2-0.1,0.3h-0.1c0,0.1,0,0.2,0,0.2c0,0.1-0.1,0.1-0.2,0.1c-0.1,0-0.2,0-0.2,0.1c0,0-0.1,0.1-0.1,0.2
		l-0.1,0.3c0,0.1-0.1,0.1-0.2,0.1c-0.2-0.1-0.4,0-0.4,0.3l-0.2-0.2l-0.1,0.2c-0.1,0.1-0.3,0.1-0.5,0.2c0,0-0.1,0-0.3,0
		c-0.1,0-0.3-0.1-0.4-0.2c0,0-0.1-0.1-0.2-0.1c-0.1,0-0.2-0.1-0.2-0.1c0-0.1,0-0.2,0-0.3c0-0.1-0.1-0.1-0.2-0.1c0,0,0,0,0-0.1v-0.1
		c0-0.1,0-0.3-0.1-0.3s-0.2-0.1-0.2-0.3v-0.3v-0.1c-0.1-0.1-0.2-0.2-0.2-0.3c0-0.1,0-0.2,0.1-0.3c0,0,0-0.1,0.1-0.2s0-0.2-0.1-0.3
		H144l0.2-0.6c0-0.1,0-0.1,0-0.1v-0.1c0-0.3,0-0.7,0-1.2v-0.1c0-0.3-0.1-0.6-0.2-0.9v-0.4v-0.1c0-0.2,0-0.4-0.1-0.5
		c0-0.1,0-0.1,0-0.2v-0.1V119v-0.9V118c0.1-0.1,0.1-0.1,0-0.2l-0.1-0.1c0-0.1,0-0.1,0-0.1c0-0.1,0-0.2,0.1-0.3c0-0.1,0-0.2,0.1-0.3
		c0-0.1,0-0.2,0.1-0.2c0,0,0.1-0.1,0.2-0.1c0.1,0,0.1-0.1,0.1-0.3c0,0,0,0,0-0.1c0,0,0,0,0-0.1c0.1,0,0.2-0.1,0.2-0.1l0.1-0.1
		c0.2,0,0.5,0,0.8,0c0.4,0.1,0.6,0.2,0.7,0.2c0,0.1,0,0.3,0.1,0.4s0.1,0.2,0.3,0.3c0.1,0.1,0.2,0.2,0.3,0.2c0.1,0.1,0.1,0.2,0.1,0.3
		c0.1,0,0.1,0.1,0.1,0.1s0,0.1-0.1,0.2l0.2,0.3c0,0,0.1,0.1,0.2,0.3c0.1,0.1,0.2,0.3,0.2,0.6c0,0.1,0.1,0.2,0.1,0.3
		c0,0.1,0.1,0.2,0.1,0.3c0,0,0,0.1,0.1,0.1c0,0.1,0.1,0.1,0.1,0.2v0.1c-0.1,0.1,0,0.2,0.2,0.4c-0.2,0.2-0.2,0.3,0,0.4v0.1
		c0,0,0,0.1-0.1,0.1c-0.2,0.1-0.2,0.3,0,0.4c0.1,0,0.2,0.2,0.2,0.4c0,0.3,0.1,0.5,0.1,0.6l0,0C148.4,122.3,148.4,122.7,148.3,122.9z
		 M149.8,122.3c0,0,0-0.1,0-0.2s0-0.1,0-0.2s0-0.3,0-0.5s0.1-0.3,0.3-0.4l0.1-0.1c0.1,0,0.1-0.1,0-0.2l0.6-0.4c0,0,0.1,0,0.2,0
		c0.1,0,0.2,0,0.3-0.1l0.4-0.2c0,0,0,0,0.1-0.1l0,0c0.1,0.1,0.2,0.1,0.4,0.1c0.1-0.1,0.2-0.1,0.3-0.1c0.1,0.1,0.3,0.1,0.4,0.1
		l0.7,0.1l0.1,0.1h0.2c0.2,0,0.4,0,0.5,0.2c0,0.1,0.2,0.2,0.3,0.2s0.1,0,0.1,0c0.1,0,0.2,0,0.3,0.1s0.2,0.2,0.2,0.2
		c0,0.2,0,0.3,0.1,0.4s0.2,0.1,0.4,0.2c0.1,0.1,0.2,0.2,0.2,0.3c0,0,0,0.1-0.1,0.3c0,0,0,0.1,0,0.2c0,0,0,0.1,0.1,0.1
		c0,0.1,0,0.1,0.1,0.1c0.1,0.3,0,0.4-0.3,0.4c0,0.2,0.1,0.3,0,0.3c0,0-0.1,0.1-0.3,0.1c-0.1,0-0.2,0.1-0.4,0.2H155
		c-0.1,0-0.1,0-0.2,0.1c0,0-0.1,0-0.1,0.1c-0.1,0-0.1,0.1-0.1,0.1v0.1c-0.1,0-0.2,0-0.4,0.1l0.1-0.3h-0.1c-0.1,0-0.2,0.1-0.2,0.2
		c-0.1,0.1-0.2,0.1-0.2,0.2c0-0.1-0.1-0.1-0.1-0.1s-0.1,0.1-0.1,0.2c-0.1-0.1-0.1-0.2-0.1-0.3h-0.1h-0.1v-0.1h-0.1
		c-0.1,0.1-0.3,0.1-0.4,0h-0.1c0,0-0.1,0-0.1,0.1c-0.1,0.1-0.2,0.1-0.4,0c-0.1-0.2-0.2-0.2-0.4,0c0,0,0-0.1-0.1-0.2l-0.1,0.2
		c-0.2-0.3-0.4-0.4-0.6-0.4h-0.1c0.1-0.2,0.1-0.4-0.1-0.6c-0.1-0.2-0.2-0.3-0.4-0.3c0,0-0.1,0-0.2,0c-0.1,0-0.1-0.1-0.1-0.2v-0.1
		L149.8,122.3L149.8,122.3z"/>
	<path class="st0" d="M160.7,109.6c0.1-0.2,0.2-0.5,0.5-0.9c0,0,0.1-0.1,0.2-0.1c0.1,0,0.1-0.1,0.2-0.2c0.1,0,0.3-0.1,0.4-0.2
		c0.1-0.2,0.2-0.2,0.2-0.3l0.1-0.1c0.1,0,0.2,0.1,0.2,0l0.1-0.1c0-0.1,0.1-0.1,0.1-0.2c0,0,0-0.1,0.1-0.1s0.3,0,0.4-0.1
		c0.1-0.1,0.3-0.1,0.4-0.2c0,0,0.1,0,0.2-0.1c0.1,0,0.1,0,0.2-0.1c0.1,0,0.2-0.1,0.3-0.1s0.2-0.1,0.2-0.1l0.1-0.1
		c0.2,0,0.4,0,0.6-0.1s0.3-0.2,0.4-0.2c0.1,0,0.3-0.1,0.5-0.1c0.2-0.1,0.4-0.1,0.5-0.1h0.5h0.2c0.1,0,0.2-0.1,0.4-0.1s0.3,0,0.4-0.1
		h0.3h0.1c0.1,0,0.1,0,0.2,0c0.1,0,0.2,0,0.3,0s0.2-0.1,0.3-0.1l0,0c0.1,0,0.3,0.1,0.5,0.1s0.4,0.1,0.6,0.1c0,0,0.1,0,0.1,0.1
		c0.1,0.1,0.2,0.2,0.4,0.2c0.2,0.1,0.3,0.1,0.4,0.2l0.1,0.1c0,0.3,0.1,0.5,0.3,0.6c0.1,0.1,0.2,0.2,0.3,0.3c0.1,0.1,0.2,0.2,0.2,0.3
		c0,0,0,0.1,0,0.2c0,0,0.1,0.1,0.3,0.2c0.1,0.1,0.2,0.2,0.2,0.3c0,0.1,0,0.2,0,0.2c0,0.1,0,0.1-0.1,0.2c-0.1,0-0.1,0.1-0.1,0.2
		s0,0.1,0.1,0.2c0,0,0,0,0,0.1c0,0,0,0,0.1,0c0,0.1-0.1,0.2-0.1,0.3v0.3l0.1,0.1l-0.2,0.1c0.1,0.1,0.1,0.2,0,0.4l0,0
		c0,0.1-0.1,0.2-0.1,0.3c-0.1,0.1-0.1,0.2-0.1,0.3c0,0.1,0,0.2-0.1,0.2c0,0.1-0.1,0.1-0.2,0.2c-0.1,0-0.2,0.1-0.2,0.1
		c0.1,0.1,0.1,0.3-0.1,0.4c0,0,0,0,0,0.1v0.3c-0.1,0-0.2,0-0.3,0.1c-0.1,0-0.1,0.1-0.1,0.2c0,0,0,0.1-0.1,0.1s-0.1,0.1-0.2,0.1
		c-0.2,0-0.3,0.1-0.3,0.2v0.1v0.1c-0.1,0.1-0.2,0.1-0.3,0.2c-0.1,0-0.2,0.1-0.3,0.1s-0.1,0.1-0.2,0.1c0,0-0.1,0-0.1,0.1l0.1,0.2
		h-0.1c-0.1,0-0.2,0-0.4,0.1c-0.1,0.1-0.2,0.2-0.3,0.4c-0.4,0-0.7,0.1-0.9,0.2c0,0-0.1,0.1-0.4,0.2c-0.2,0.1-0.4,0.3-0.6,0.5
		c0,0,0,0.1-0.1,0.1v0.1h0.2c0,0,0.1,0,0.3-0.1c0.1-0.1,0.4-0.1,0.8-0.1c0.1,0,0.5,0,1.1,0.1l0.4-0.1c0.2,0,0.3,0,0.4,0
		c0.1,0,0.2,0,0.3,0s0.2,0,0.3-0.1l0.1-0.1c0,0,0.1,0.1,0.3,0.1c0.1,0,0.2,0.1,0.3,0.1h0.1c0.1,0,0.2,0,0.3,0s0.1,0.1,0.2,0.2
		c0.1,0.1,0.1,0.2,0.1,0.2l0.3,0.3c0.1,0.1,0.2,0.1,0.2,0.1s0,0.1-0.1,0.2c0.2,0,0.3,0.1,0.3,0.3s0,0.3,0,0.3c0,0.1,0,0.2,0,0.3
		c0,0.1-0.1,0.2-0.1,0.3v0.1c0.1,0.1,0.1,0.1,0.1,0.2s-0.1,0.1-0.1,0.2c0,0.2-0.1,0.4-0.3,0.6c-0.1,0.2-0.2,0.3-0.3,0.4
		s-0.3,0.3-0.6,0.4l-0.4,0.4c0,0-0.1,0.1-0.2,0.3s-0.2,0.2-0.4,0.2l-0.1,0.2l-0.1,0.3l-0.1,0.3l-0.1,0.1l-0.1,0.1l-0.1,0.1l-0.2,0.2
		l-0.1,0.1c-0.1,0.5-0.2,0.9-0.4,1c0,0.1-0.1,0.2-0.1,0.3s-0.1,0.3-0.1,0.3c0.1,0.2,0.2,0.2,0.4,0.1c0-0.1,0.1-0.1,0.3,0
		c0.1,0,0.2,0,0.3,0c0.2,0,0.5-0.1,0.9-0.2h0.3c0,0,0.1,0,0.1-0.1s0.1-0.1,0.1-0.1c0.1,0,0.1,0,0.1,0l0.6-0.2c0,0,0.1,0,0.2,0
		c0.1-0.1,0.3-0.2,0.4-0.2c0.1,0,0.3-0.1,0.4-0.2c0.1-0.1,0.3-0.2,0.3-0.2c0.2-0.1,0.3-0.2,0.4-0.3c0,0,0-0.1,0.1-0.2l0.8-0.8
		c0.1-0.1,0.1-0.2,0.2-0.3c0-0.1,0.1-0.2,0.1-0.3l0.1-0.1h0.1c0.1,0,0.2,0,0.2,0c0.1,0,0.1,0.1,0.1,0.2s0.1,0.2,0.1,0.3
		s0.1,0.2,0.1,0.3c0.1,0.5,0.2,0.9,0.3,1.3c0,0.1,0,0.2-0.1,0.2c0,0-0.1,0.2-0.1,0.4c0,0.2-0.2,0.3-0.3,0.4
		c-0.3,0.1-0.4,0.3-0.4,0.5c0,0.1-0.2,0.3-0.5,0.3c-0.1,0-0.2,0.1-0.3,0.2s-0.1,0.1-0.2,0.2l0,0c-0.1,0-0.2,0.1-0.3,0.2
		s-0.3,0.1-0.3,0.3c0,0.1-0.1,0.1-0.2,0.1c-0.1,0-0.2,0-0.3,0.1c-0.2,0-0.4,0.1-0.5,0.3c-0.1,0.1-0.3,0.1-0.5-0.1
		c-0.1,0.2-0.3,0.3-0.6,0.3c0,0-0.1,0.1-0.2,0.1c-0.1,0.1-0.2,0.1-0.3,0.2l-0.1-0.1c-0.1,0.1-0.2,0.2-0.3,0.3l-0.2-0.1
		c0-0.1-0.1-0.1-0.2-0.1c-0.1,0-0.2,0-0.2,0.1c-0.1,0.1-0.2,0.1-0.3,0.1h-0.1h-0.1h-0.1c-0.1,0-0.2,0-0.4-0.1s-0.3-0.1-0.4-0.1h-0.1
		c-0.1,0.1-0.2,0.1-0.4,0.1c-0.1-0.1-0.2-0.1-0.3-0.1c-0.2,0-0.3-0.1-0.5-0.2c-0.1-0.1-0.3-0.2-0.4-0.2v-0.2l-0.3-0.2l-0.1-0.1
		l-0.1-0.1c-0.1-0.1-0.1-0.1-0.1-0.2l0.1-0.3c0,0-0.1,0-0.2-0.1c-0.1,0-0.1-0.1,0.1-0.2c-0.1-0.1-0.1-0.3-0.1-0.4v-0.3
		c0-0.1,0-0.2,0.1-0.3c0-0.1,0.1-0.2,0.1-0.3l0,0c-0.1-0.1-0.1-0.2-0.1-0.3c0.1-0.1,0.1-0.1,0.1-0.1c0.2-0.5,0.3-0.7,0.3-0.8
		l0.1-0.1c0,0,0-0.1,0.1-0.2c0-0.1,0.1-0.1,0.1-0.1l0.1-0.1l0.1-0.3c0,0,0.1-0.2,0.2-0.4c0.1-0.2,0.2-0.3,0.4-0.4
		c0.1,0,0.1,0,0.1-0.1c0-0.2,0.1-0.4,0.3-0.6c0.2-0.1,0.3-0.3,0.4-0.4c0.2-0.3,0.4-0.5,0.4-0.5c0.2-0.1,0.3-0.2,0.3-0.2
		c0-0.1,0-0.1,0-0.1h-0.1h-0.1h-0.1c-0.1-0.1-0.2-0.1-0.2-0.1c-0.1,0-0.1,0.1-0.1,0.2s-0.1,0.2-0.1,0.2c-0.1-0.1-0.2-0.1-0.3,0
		s-0.2,0.1-0.2,0.1s-0.1,0-0.2,0c-0.1,0-0.1,0-0.1,0c-0.1-0.1-0.3-0.1-0.4-0.1c-0.1,0-0.2,0.1-0.4,0.2l-0.1-0.1h-0.1l-0.5,0.2
		c0,0,0-0.1-0.1-0.1l-0.1-0.1c0,0-0.1,0-0.2,0c-0.1,0-0.1,0.1-0.1,0.1c-0.1,0.1-0.3,0.1-0.4,0.1c-0.2,0-0.3-0.1-0.5-0.2v0.1l0.1,0.1
		c0,0,0.1,0.1,0.2,0.1h-0.1h-0.1c0,0-0.2-0.1-0.3-0.2c0,0-0.1,0-0.2,0c-0.1,0-0.1,0.1-0.1,0.1c0,0.1-0.1,0.1-0.3,0.1
		c-0.1,0-0.1,0-0.1-0.1s-0.1-0.2-0.2-0.2c-0.1,0-0.2,0-0.2,0l-0.4-0.1c-0.1,0.1-0.2,0.1-0.3,0s-0.2-0.1-0.3-0.1h-0.2
		c-0.1,0-0.3-0.1-0.3-0.2v-0.1c0-0.1,0-0.1,0-0.1l-0.2-0.3l0,0c-0.1,0-0.2,0-0.3-0.1s-0.1-0.2-0.1-0.3c0-0.1,0-0.2-0.1-0.2
		c0,0-0.1-0.1-0.2-0.1c-0.1,0-0.2,0-0.2-0.1s0.1-0.3,0.1-0.5v-0.1c0,0,0-0.1,0-0.2l0.1-0.1l0.1-0.1h0.1c0-0.2,0-0.4,0.1-0.6
		c0-0.1,0.1-0.2,0.1-0.3v-0.1c0.3-0.2,0.6-0.4,0.6-0.5s0.2-0.2,0.3-0.3c0.2-0.1,0.3-0.2,0.3-0.3c0.1-0.1,0.2-0.2,0.3-0.3
		c0.1-0.1,0.3-0.2,0.3-0.3c0.1,0,0.2,0,0.3,0c0.1-0.1,0.2-0.2,0.2-0.3c0.1-0.1,0.2-0.1,0.3-0.2s0.2-0.1,0.3-0.1h0.1c0,0,0,0,0-0.1
		c0,0,0,0-0.1-0.1c0.2-0.2,0.5-0.4,0.9-0.6c0,0,0.1-0.1,0.2-0.1c0.1,0,0.2-0.1,0.3-0.1c0.1-0.1,0.2-0.1,0.3-0.2s0.3-0.2,0.4-0.3
		l0.1-0.1c0-0.1,0.1-0.2,0.2-0.3c0.1-0.1,0.2-0.1,0.3-0.1c0.2-0.1,0.4-0.3,0.4-0.4s0-0.1,0.1-0.1c0.1-0.1,0.2-0.2,0.2-0.3
		s0.1-0.3,0.1-0.4c0-0.2,0-0.3,0-0.3c-0.1,0-0.2,0-0.2,0c-0.1,0-0.2,0-0.3,0l-0.1-0.1c0,0-0.1-0.1-0.2-0.1v0.1v0.1l-0.3-0.1v0.1
		h-0.1c0-0.2-0.1-0.2-0.3-0.1c-0.2,0-0.5,0-0.9-0.1c-0.2,0-0.3,0.1-0.3,0.2h-0.1h-0.1c0-0.1-0.1-0.2-0.1-0.2s-0.1,0-0.2,0.1
		c-0.1,0.1-0.2,0.1-0.2,0.1s-0.1-0.1-0.2-0.3c-0.1,0.1-0.2,0.2-0.2,0.3c-0.1,0-0.2,0-0.3,0l-0.1-0.2c-0.1,0.2-0.3,0.3-0.5,0.3
		c-0.1,0-0.2,0-0.3-0.1c-0.1,0.1-0.4,0.2-0.8,0.3l-0.2,0.1c-0.1,0-0.3,0.1-0.4,0.2c-0.1,0.1-0.2,0.2-0.3,0.3v0.1v0.1l0.3,0.5
		c0,0,0.1,0.1,0.1,0.2c0,0-0.1,0-0.2-0.1h-0.1c-0.1,0-0.2,0.1-0.4,0c-0.2,0-0.3-0.1-0.4-0.2c-0.4-0.3-0.5-0.7-0.5-1.2
		c0-0.2,0-0.3,0-0.3S160.7,109.7,160.7,109.6z M188.1,125c-0.1,0-0.2,0-0.3-0.1c-0.1,0-0.2-0.1-0.3-0.1s-0.2,0.1-0.2,0.2
		s-0.1,0.2-0.1,0.2s-0.1-0.1-0.2-0.2c-0.1-0.1-0.1-0.1-0.2-0.2c-0.1,0-0.2,0-0.3,0l0.1,0.2c-0.1,0-0.1,0-0.1,0s0-0.1-0.1-0.2
		l-0.3-0.1c-0.1,0-0.2,0-0.3,0c0-0.1-0.2-0.3-0.3-0.6V124c0.1-0.1,0.1-0.1,0.1-0.2s0-0.2-0.1-0.3c0-0.1-0.1-0.2-0.1-0.2
		c0-0.1-0.1-0.2-0.2-0.3c-0.1-0.1-0.2-0.2-0.2-0.3c0-0.1,0-0.1-0.1-0.1c-0.1-0.1-0.1-0.2,0-0.3c0,0,0.1-0.1,0.2-0.1
		c0.1,0,0.1-0.1,0.2-0.2c-0.1,0-0.2-0.1-0.4-0.3c0.1-0.1,0.2-0.1,0.2-0.2s0-0.1-0.1-0.2c-0.2-0.2-0.3-0.3-0.3-0.5
		c0-0.1,0-0.3,0.1-0.5c-0.2,0-0.3-0.1-0.3-0.2l0.1-0.2c0,0,0-0.1,0-0.2s-0.1-0.1-0.1-0.1c-0.1-0.1-0.2-0.2-0.2-0.3V119
		c0-0.1,0-0.2-0.1-0.4c-0.1-0.1-0.3-0.2-0.4-0.3c-0.2-0.1-0.3-0.1-0.4-0.1c-0.3-0.1-0.7,0-1,0.3c-0.1,0.1-0.2,0.1-0.3,0
		c0,0-0.1-0.1-0.2-0.1c-0.1,0-0.1-0.1-0.1-0.2v-0.1c0-0.1,0-0.2,0.1-0.4c0-0.2,0.1-0.3,0.1-0.4s0.1-0.2,0.2-0.4
		c0.1-0.2,0.3-0.4,0.5-0.4c0.1,0,0.3-0.1,0.5-0.2s0.3-0.2,0.5-0.2c0.1,0,0.2,0,0.4,0s0.3,0,0.4,0c0.1,0,0.3,0,0.5,0s0.4,0,0.5,0
		c0,0,0,0,0.1,0c0,0,0,0,0.1,0l0.3,0.1c0.1,0,0.2,0.1,0.4,0.2c0,0,0.1,0,0.2,0.1c0.1,0,0.2,0.1,0.2,0.3c0.1,0,0.2,0,0.2,0.1l0.6,0.6
		c0.1,0.1,0.2,0.2,0.2,0.2c0.1,0.1,0.2,0.2,0.3,0.4v0.1c0,0,0,0.1,0.1,0.1c0.3,0.3,0.4,0.5,0.5,0.6c0,0,0.1,0.1,0.1,0.2s0,0.1,0,0.1
		c0,0.1,0,0.3,0.1,0.4c0,0.1,0.1,0.2,0.2,0.3c0,0.1,0,0.2,0.1,0.3c0.1,0.1,0.1,0.1,0.2,0.1c0,0.1,0.1,0.2,0.1,0.3
		c0,0.1,0.1,0.2,0.1,0.3c0,0.3,0,0.7,0.2,1l-0.1,0.1c0,0.1-0.1,0.1-0.1,0.1s0,0.1,0,0.2s0.1,0.2,0.2,0.2l0.1,0.3v0.3l-0.1,0.1v0.1
		c-0.1,0-0.1,0.1-0.1,0.1c0,0.1,0,0.1,0.1,0.2c-0.1,0-0.2,0.1-0.2,0.1s0,0.1,0,0.2c0,0.2-0.1,0.4-0.3,0.6c-0.1,0.1-0.1,0.2-0.1,0.3
		c0,0.1-0.1,0.2-0.2,0.2L188.1,125L188.1,125z"/>
	<path class="st0" d="M208.6,129.7L208.6,129.7c0,0.1,0,0.2,0,0.3v0.2v0.1v0.1c0.1,0.1,0,0.2-0.1,0.4c-0.1,0.1-0.1,0.1-0.1,0.2
		c0,0.2-0.1,0.3-0.3,0.3c0,0-0.1,0-0.1,0.1s-0.1,0.1-0.1,0.2c0,0.1-0.1,0.2-0.1,0.2v0.1l0,0c-0.1,0-0.2,0.1-0.4,0.3
		c-0.2,0.1-0.3,0.2-0.4,0.3c-0.1,0.1-0.3,0.1-0.3-0.1c0,0-0.1-0.2-0.3-0.4v-0.1c0,0,0,0-0.1,0c-0.3-0.2-0.4-0.4-0.5-0.6v-0.1
		c0-0.2,0.1-0.4,0-0.7c0-0.3-0.1-0.5-0.1-0.6c0,0,0-0.1,0-0.3c0-0.1,0-0.2,0-0.3s0-0.2,0-0.3s0-0.2,0-0.3v-0.1
		c0-0.2-0.1-0.3-0.1-0.5s0-0.4,0.1-0.8c0-0.1,0-0.3,0-0.5s0-0.4,0-0.7v-0.4l-0.1-0.1h0.1c0-0.2-0.1-0.3-0.1-0.4
		c-0.1-0.6-0.2-0.9-0.2-1.1v-0.3c0,0,0-0.1,0-0.2s0-0.1-0.1-0.2v-0.1c0-0.1,0-0.1,0-0.2l-0.2-0.2l-0.4-1l-0.5,0.1l-0.1-0.1l-0.7,0.3
		h-0.1c-0.1,0-0.2-0.1-0.3-0.1s-0.2,0-0.4,0.1c-0.1,0-0.3,0.1-0.4,0.1c-0.1,0-0.2,0-0.4,0c-0.3,0-0.5,0-0.6,0.1
		c-0.2,0.1-0.5,0.1-1,0.1c-0.2,0-0.4,0-0.6,0c-0.2,0-0.3,0-0.4,0.1c-0.1,0-0.1,0-0.2,0h-0.1c-0.1,0-0.2,0.1-0.4,0.1
		c-0.1,0-0.3,0-0.5-0.1s-0.3-0.1-0.5-0.1l-0.5-0.3c-0.2-0.1-0.3-0.3-0.3-0.6c0-0.1,0.1-0.2,0.1-0.3s0.1-0.1,0.2-0.2
		c0.1-0.1,0.2-0.1,0.3-0.1s0.2,0.1,0.3,0.2l0.1,0.1c0.1,0,0.1,0,0.1,0c0.3,0,0.8-0.1,1.3-0.2h0.1c0.2,0,0.4,0,0.6-0.1
		c0.2-0.1,0.4-0.2,0.5-0.2c0.1-0.1,0.3-0.1,0.5-0.2l0.4-0.2l0.1-0.1c0.1,0.1,0.3,0.1,0.5,0s0.3-0.1,0.4-0.1l0,0c0.1,0,0.3,0,0.4,0
		c0.2,0,0.3-0.1,0.3-0.1l0.1-0.1c0.1,0,0.2,0,0.4,0c0,0,0.1,0,0.1-0.1c0.1,0,0.1,0,0.2,0h0.1c0.3,0,0.6,0,0.8,0s0.4,0,0.5-0.1
		c0.3,0,0.6-0.1,0.8-0.1h0.2c0.2,0,0.4,0,0.6,0.1c0.2,0,0.4,0.1,0.5,0.1h0.4c0.1,0,0.1,0,0.2,0c0.1,0,0.1,0,0.2,0h0.5v-0.1
		c0,0,0.1,0.1,0.1,0.3c0.1-0.1,0.2-0.2,0.3-0.2s0.2,0.1,0.3,0.2l0.1,0.1c0.1,0,0.1,0.1,0.2,0.1c0.1,0,0.1,0,0.1,0
		c0.1,0,0.2,0.1,0.3,0.2c0,0.1,0.1,0.2,0.2,0.2c0.1,0.1,0.1,0.1,0.2,0.1v0.4v0.2v0.5c-0.3,0-0.5,0.1-0.5,0.4h-0.1
		c-0.3,0-0.6,0.1-0.9,0.3h-0.1c0,0,0.1-0.1,0.1-0.2h-1.5l0,0c0,0-0.1,0-0.1-0.1h-0.1l-0.1,0.1c0,0,0,0.1,0.1,0.1l0.1,0.1
		c0,0,0.1,0.1,0.1,0.2c0,0,0,0.1,0.1,0.1c0.1,0.1,0,0.2-0.1,0.3v0.1c0.2,0.1,0.3,0.3,0.3,0.5c0,0.1,0.1,0.3,0,0.3
		c0,0.1,0.1,0.2,0.1,0.3c0.1,0.1,0.1,0.2,0.1,0.3l0,0c-0.1,0.1-0.1,0.3,0,0.4c0.1,0.2,0.1,0.3,0.1,0.4v0.1c0,0,0,0,0,0.1
		c0,0,0,0,0.1,0l-0.2,0.2c-0.1,0.1-0.1,0.2,0,0.3c0.1,0.1,0.2,0.3,0.2,0.5c0,0.1,0,0.2-0.1,0.3c0,0.1,0,0.2,0,0.3c0,0.1,0,0.2,0,0.2
		s0,0.1,0,0.2s0,0.2,0,0.3c0,0,0,0.1,0,0.2c0,0.1,0,0.2,0,0.2v0.1c-0.1,0.1-0.1,0.2-0.1,0.3s0.1,0.2,0.1,0.2s0,0,0,0.1v0.1
		C208.6,129.5,208.6,129.6,208.6,129.7C208.6,129.6,208.6,129.6,208.6,129.7C208.6,129.6,208.6,129.7,208.6,129.7z M198.3,104.6
		l0.1-0.4c0.2-0.2,0.3-0.4,0.5-0.5c0,0,0,0,0.1,0s0.2,0,0.3,0s0.3,0.1,0.4,0.1c0,0,0.1,0.1,0.3,0.2c0.1,0.1,0.2,0.2,0.2,0.4v0.1v0.1
		c0.3,0.2,0.5,0.5,0.6,0.9c0.1,0.2,0.2,0.3,0.2,0.3c0.2,0.3,0.3,0.5,0.4,0.6c0.1,0.3,0.3,0.6,0.4,0.8s0.2,0.5,0.3,0.7
		c0,0,0.1,0.1,0.1,0.2c0.1,0.1,0.1,0.1,0.1,0.2s0.1,0.2,0.1,0.3c0,0.1,0,0.2,0.1,0.3c0.2,0.2,0.3,0.5,0.4,0.7
		c0.3,0.8,0.5,1.2,0.5,1.3c0,0,0,0.1,0,0.3s0.1,0.3,0.1,0.4s0.1,0.1,0.1,0.2c0.1,0,0.1,0.1,0.2,0.1c0.1,0,0.1,0,0.2-0.1
		c0.1-0.1,0.3-0.2,0.6-0.3l0.8-0.3c0.2-0.1,0.4-0.1,0.5-0.2c0,0,0.1,0,0.2,0c0.1,0,0.2-0.1,0.2-0.1c0.1,0,0.2-0.2,0.3-0.4
		c0.1-0.1,0.1-0.4,0.1-0.7v-0.3v-0.1c-0.2-0.1-0.4-0.2-0.7-0.2c-0.1,0-0.2,0-0.3,0.1h-0.3c-0.4,0-0.9-0.2-1.7-0.4
		c-0.1,0-0.1-0.1-0.2-0.1c-0.1,0-0.1-0.1-0.2-0.1l-0.5-0.5v-1c0.1-0.1,0.1-0.1,0.2-0.2c0.1-0.1,0.1-0.1,0.2-0.2h0.3h0.5
		c0.1,0,0.3,0,0.4-0.1c0.1,0,0.2-0.1,0.4-0.1c0.4,0,0.8-0.1,1-0.1c0.5,0,0.9-0.1,1.1-0.1c0.1,0,0.2-0.1,0.3-0.2s0.1-0.2,0.1-0.3
		v-0.1l-0.1-0.1c0.1-0.2,0.2-0.4,0.2-0.6v-0.4v-0.3c0-0.1,0-0.1,0-0.2s0-0.2,0.1-0.2c0-0.1,0.1-0.1,0.2-0.1
		c-0.1-0.1-0.1-0.3-0.1-0.3c0-0.1,0-0.1,0.1-0.2c0.1,0,0.2-0.1,0.3-0.1l-0.2-0.3c0.4-0.2,0.7-0.4,1-0.6c0,0,0.1,0.1,0.2,0.2
		c0.1,0.1,0.2,0.1,0.3,0.1c0,0,0.1,0,0.2-0.1l0.3,0.2c0.2,0.2,0.3,0.3,0.4,0.4c0.2,0.2,0.4,0.5,0.4,0.8v0.1v0.9v0.4v0.4
		c0,0.1,0,0.1-0.1,0.2s-0.1,0.1-0.1,0.2c0,0.4,0,0.8-0.1,1.2c0,0.3,0,0.6-0.1,0.8c0,0.2-0.1,0.4-0.2,0.5c-0.1,0.1-0.1,0.2,0,0.4
		c0.1,0.2,0.1,0.4-0.1,0.6c-0.1,0.1-0.1,0.2-0.1,0.3c0.1,0.1,0.2,0.2,0.1,0.2c0,0.1-0.1,0.2-0.1,0.3c-0.1,0.1-0.1,0.2-0.1,0.4v0.2
		c0,0.1,0,0.2,0,0.3c-0.1,0.3-0.2,0.5-0.2,0.7c0,0,0,0,0,0.1s0,0,0,0c-0.2,0-0.3,0.1-0.4,0.2s-0.2,0.2-0.2,0.2
		c-0.1,0.1-0.2,0.2-0.1,0.3c0.1,0.1,0.1,0.1,0.1,0.2c-0.1,0-0.2,0-0.3,0s-0.2,0-0.2,0c-0.1,0.1-0.3,0.3-0.5,0.4c0,0-0.1,0.1-0.2,0.2
		c-0.1,0.1-0.2,0.1-0.3,0.1c0,0-0.1,0-0.1,0.1l-0.1,0.1c-0.1,0.1-0.2,0.2-0.3,0.2l-0.4,0.1h-0.3c0,0.1-0.1,0.1-0.2,0.2
		c-0.1,0-0.2,0.1-0.2,0.1c-0.2,0.1-0.3,0.2-0.4,0.2h-0.1c-0.1,0-0.2,0-0.3,0.1c-0.1,0-0.2,0.1-0.3,0.1c-0.1,0.1-0.2,0.1-0.3,0.1
		s-0.2,0-0.3-0.1l-0.2,0.1c-0.1,0.1-0.2,0.2-0.3,0.2l-0.2-0.1c-0.1,0-0.3,0.1-0.4,0.1c-0.1,0-0.3,0.1-0.4,0.1c0-0.2-0.1-0.3-0.2-0.3
		c0,0-0.1,0-0.2,0.1s-0.2,0.1-0.2,0.1l0.1-0.5h-0.5v-0.1v-0.1l-0.1-0.1c0-0.1-0.1-0.1-0.2-0.1c-0.2,0-0.3-0.1-0.3-0.2v-0.1
		c0,0,0-0.1-0.1-0.1l-0.1-0.1c-0.1,0-0.2-0.1-0.2-0.3c0-0.1,0-0.2,0-0.2c0-0.2,0.1-0.3,0-0.4c0-0.1-0.1-0.2-0.3-0.3v-0.1
		c0-0.1,0-0.1,0-0.2s-0.1-0.1-0.2-0.1H200c0-0.4,0-0.7,0-0.8c0,0,0-0.1,0-0.3c0-0.1-0.1-0.2-0.1-0.3c0-0.1-0.1-0.1-0.1-0.2
		s-0.1-0.1-0.1-0.2s0-0.2,0.1-0.2l-0.1-0.1c-0.2-0.2-0.3-0.5-0.3-0.9c0-0.1,0-0.1-0.1-0.2c0-0.1-0.1-0.1-0.1-0.2l-0.5-1v-0.1v-0.1
		c0.1-0.1,0.1-0.3,0.1-0.4c0-0.2-0.1-0.3-0.2-0.5c-0.1-0.1-0.2-0.2-0.2-0.4c0,0,0-0.1,0.1-0.2c0-0.1,0-0.1,0-0.2s0-0.1,0-0.1
		l-0.3-0.4c0-0.2-0.1-0.4-0.1-0.4S198.3,104.8,198.3,104.6z M200.1,124.4C200.1,124.3,200.1,124.3,200.1,124.4
		C200.1,124.3,200.1,124.3,200.1,124.4c0-0.2-0.1-0.2-0.1-0.3c0,0,0-0.1,0.1-0.1s0.1-0.1,0.1-0.1c0.1-0.1,0.3-0.2,0.4-0.3
		c0.1,0,0.3-0.1,0.6-0.1c0.1,0,0.2,0,0.2,0.1c0,0,0.1,0.1,0.2,0.1c0.1,0,0.1,0.1,0.1,0.1s0.1,0.1,0.2,0.1c0.1,0.1,0.1,0.1,0.2,0.1
		c0,0.1,0.1,0.2,0.2,0.3c0.1,0.1,0.2,0.2,0.3,0.3c0.1,0.1,0.2,0.2,0.3,0.3l0.1,0.1l0,0c0.1,0.2,0.2,0.4,0.2,0.4
		c0,0.1,0.1,0.3,0.1,0.4s0,0.2,0.1,0.3c0,0.1,0,0.2,0.1,0.2c0,0,0.1,0.1,0.1,0.2s0,0.1,0,0.2s0.1,0.2,0.1,0.4c0,0.1,0.1,0.3,0.1,0.4
		s0,0.3-0.1,0.5c0,0.2,0,0.4-0.1,0.5c0,0-0.1,0.2-0.1,0.3c-0.1,0.2-0.2,0.3-0.3,0.3l-0.1,0.1c0,0.1,0,0.1-0.1,0.1
		c-0.1,0.2-0.3,0.3-0.5,0.3c0,0,0,0-0.1,0c0,0,0,0-0.1,0c-0.5-0.3-0.7-0.5-0.8-0.5l-0.1-0.1v-0.1v-0.1c-0.1,0-0.2-0.1-0.2-0.3v-0.1
		c0-0.4-0.1-0.7-0.1-0.9v-0.3v-0.1c0-0.1,0-0.2,0-0.3v-0.1c0-0.1-0.1-0.2-0.1-0.3c0-0.1-0.1-0.2-0.2-0.3c0,0-0.1-0.1-0.1-0.2
		s-0.1-0.1-0.1-0.2v-0.1c0-0.1-0.1-0.3-0.3-0.4c-0.1-0.1-0.2-0.3-0.2-0.5L200.1,124.4L200.1,124.4z"/>
	<path class="st0" d="M218.3,115.1c0-0.1,0-0.2,0-0.3c0-0.1-0.1-0.2-0.1-0.3c0-0.1,0-0.2,0.1-0.3c0,0,0.1-0.1,0.2-0.1
		c0.1,0,0.2-0.1,0.2-0.2c0.1-0.2,0.3-0.3,0.5-0.3l0.6-0.2h0.1c0,0,0.1,0,0.1-0.1l0.1-0.1c0.1,0,0.1-0.1,0.2-0.1s0.1-0.1,0.2-0.1
		c0,0,0.1,0,0.2,0c0.1,0,0.1,0,0.2,0c0.2-0.1,0.3-0.2,0.5-0.3l0.1-0.1c0.1,0.1,0.2,0.1,0.3,0.1s0.2,0,0.3-0.1l0.6-0.1
		c0.1,0,0.2,0,0.3-0.1c0.1,0,0.2-0.1,0.3-0.1h0.2c0.1,0,0.2,0,0.3,0c0,0,0.1,0,0.2-0.1c0.1,0,0.2,0,0.3,0.1c0,0,0,0,0.1,0
		c0,0,0.1,0,0.1-0.1c0.1,0,0.1,0,0.2,0c0,0,0.1,0,0.2,0h0.6h0.1c0,0,0.1,0,0.1-0.1v0.1l0.1-0.2l0,0h0.4c0.3,0,0.4,0,0.5,0
		c0.1,0.1,0.2,0.1,0.3,0.1s0.2-0.1,0.2-0.1s0.1,0,0.2,0c0.1,0,0.1,0,0.2,0c0,0,0.1,0,0.2,0c0.1,0,0.1,0,0.2,0c0.1,0,0.1,0,0.2,0.1
		h0.2l0.1,0.1l0,0l0,0l0.1-0.1c0.1,0.1,0.2,0.1,0.4,0.1s0.3,0,0.4,0c0,0,0.1,0,0.2,0c0.1,0,0.2,0.1,0.2,0.1c0.1,0.1,0.1,0.1,0.2,0.1
		c0.1,0,0.2,0,0.3-0.1c0,0.1,0,0.1,0,0.1c0.2,0,0.3,0,0.3,0c0.1,0.1,0.2,0.2,0.4,0.2s0.3,0.1,0.4,0.1c0.1,0.1,0.3,0.4,0.4,0.6v0.1
		v0.1c0.1,0.1,0.2,0.3,0.3,0.5s0.2,0.4,0.3,0.4c-0.1,0.1-0.2,0.3-0.3,0.4c0,0.1-0.1,0.3-0.1,0.5c0,0.3-0.1,0.5-0.4,0.5
		c-0.1,0-0.2,0-0.2,0h-0.1l0,0c0,0.2-0.1,0.3-0.1,0.4l-0.1-0.1L231,116l-0.1,0.3c-0.1,0-0.2,0-0.2-0.1c0,0,0,0.1-0.1,0.2
		c0,0-0.1-0.1-0.1-0.2s-0.1-0.1-0.1-0.2c-0.1,0.1-0.1,0.3-0.2,0.3c-0.1,0-0.2,0-0.3,0s-0.2,0-0.3,0s-0.1,0.1-0.2,0.2
		c0-0.2-0.1-0.3-0.1-0.4c-0.1,0.1-0.2,0.1-0.2,0.2c-0.1,0-0.2,0.1-0.2,0.1v-0.1v-0.1c0-0.2,0-0.3-0.1-0.3s-0.2,0-0.2,0s-0.1,0-0.2,0
		c-0.1,0-0.1,0.1-0.1,0.1s0,0-0.1,0.1l-0.1,0.1v-0.3c-0.2,0-0.4,0-0.8,0l-0.1-0.2l0,0l-0.1,0.3l-0.1-0.1l-0.4,0.1l0,0l0.1-0.2
		c-0.1-0.1-0.3-0.2-0.3-0.2c-0.1,0-0.2,0.1-0.3,0.1c-0.1,0.1-0.2,0.1-0.3,0.1s-0.3-0.1-0.4-0.3c0,0.1,0,0.2-0.1,0.2
		c0,0.1-0.1,0.1-0.2,0.1c-0.1,0-0.2,0-0.2-0.1c0,0-0.1-0.1-0.3-0.1l-0.3-0.1c-0.3-0.1-0.4,0-0.5,0.2l0,0c0,0-0.1-0.1-0.1-0.2
		s-0.1-0.1-0.1-0.1s-0.1,0.1-0.3,0.2c-0.2-0.2-0.3-0.2-0.5,0c0,0-0.1,0-0.2-0.1c-0.1-0.1-0.2-0.1-0.3-0.1l-0.1-0.1
		c0,0.1,0.1,0.2,0.1,0.3c0,0-0.1,0-0.2,0c-0.1,0-0.1-0.1-0.2-0.1c-0.1,0-0.1,0-0.2,0.1c0-0.1,0-0.2-0.1-0.3v-0.1l-0.1,0.1
		c0,0-0.1,0.1-0.1,0.2l-0.1-0.1c-0.2,0.1-0.4,0.1-0.5,0.1c0,0-0.1,0-0.2-0.1c0,0,0,0-0.1-0.1c0,0,0,0-0.1,0
		c-0.1,0.1-0.2,0.1-0.3,0.1h-0.3c0,0-0.1,0-0.2,0c-0.1,0-0.2,0-0.2,0h-0.1l-0.3-0.1c0,0,0-0.1-0.1-0.1l-0.1-0.1c0,0-0.1-0.1-0.1-0.3
		c0-0.1-0.1-0.2-0.3-0.2L218.3,115.1z M221.1,123.2c0.1-0.1,0.1-0.3,0.1-0.5v-0.1c-0.1-0.1-0.1-0.2-0.1-0.3c0-0.1,0.1-0.2,0.1-0.2
		l0.1-0.3c0-0.1,0-0.3,0-0.5c0,0,0.1-0.1,0.1-0.2s0.1-0.2,0.2-0.2v-0.2v-0.3c0.1-0.1,0.1-0.2,0.1-0.3c0.1,0,0.2-0.1,0.2-0.2
		c0-0.2,0.1-0.3,0.1-0.3c0-0.1,0.4-0.5,1-1.2c0.3-0.3,0.8-0.6,1.4-0.9h0.1c0.1,0,0.1,0,0.1,0c0.2,0,0.4,0,0.6,0
		c0.2-0.1,0.4-0.1,0.5-0.1h0.2h0.2c0.2-0.1,0.3-0.1,0.5,0.1c0.1,0.1,0.2,0.1,0.3,0.1h0.2c0.1,0,0.2,0,0.2,0c0.3,0.1,0.4,0.2,0.5,0.3
		l0,0c0,0.1,0.1,0.2,0.3,0.3c0.1,0.1,0.2,0.1,0.3,0.1s0.2,0.1,0.3,0.2c0,0,0.1,0.1,0.2,0.1c0.1,0.1,0.2,0.2,0.2,0.3l0.1,0.2
		c0.1,0.2,0.3,0.3,0.4,0.4c0,0.1,0,0.2,0,0.3c-0.1,0.1-0.1,0.1-0.1,0.2s0,0.1,0.1,0.2s0.1,0.2,0.1,0.2c0,0.1-0.1,0.2-0.2,0.4
		c-0.1,0.2-0.2,0.3-0.2,0.5v0.1c0,0.1,0,0.1,0,0.2c0.1,0.2,0,0.3-0.1,0.4c0,0-0.1,0.1-0.1,0.3c-0.2,0.1-0.4,0.3-0.5,0.5
		s-0.2,0.3-0.2,0.5c0,0-0.1,0.1-0.3,0.2s-0.2,0.2-0.2,0.4c0,0.1,0,0.2,0,0.3c-0.1,0-0.2-0.1-0.2-0.1c-0.1,0-0.1,0-0.1,0
		c0,0.1-0.1,0.2-0.2,0.2c-0.1,0-0.2,0.1-0.3,0.1c-0.2,0.2-0.4,0.4-0.6,0.5c-0.1,0.1-0.1,0.2-0.2,0.5l-0.1-0.1l-0.1-0.1l-0.1,0.1
		c0,0.1-0.1,0.1-0.1,0.1l-0.2,0.1c-0.1,0-0.2,0-0.4-0.1c0,0,0,0.1,0,0.2s0,0.1-0.1,0.1c0,0-0.1,0-0.2-0.1l-0.2,0.2v-0.3l-0.3,0.3
		l-0.1-0.2h-0.2c0,0-0.1,0-0.2-0.1c-0.1,0-0.2,0-0.2-0.1c-0.1,0-0.2,0-0.2,0c-0.1,0-0.1,0.1-0.1,0.1c-0.1,0-0.1-0.1-0.2-0.1
		c-0.1-0.1-0.2-0.1-0.2-0.1l0,0c0,0-0.1-0.1-0.1-0.3h0.1c0,0.1-0.1,0.1-0.1,0.2s0,0.1,0,0.1l-0.4-0.4c-0.1-0.1-0.2-0.2-0.4-0.2h-0.1
		c0,0,0,0-0.1,0c0-0.1-0.1-0.2-0.2-0.3c-0.1-0.1-0.2-0.2-0.2-0.2c-0.2-0.3-0.4-0.5-0.4-0.7v-0.1v-0.2
		C221.2,123.2,221.2,123.2,221.1,123.2C221.2,123.2,221.2,123.2,221.1,123.2z M223.6,105c-0.1-0.1,0-0.2,0.1-0.3
		c0.1-0.1,0.1-0.2,0.1-0.3c0-0.1,0-0.2-0.1-0.3c0.2-0.1,0.6-0.3,1.1-0.6h0.1c0.1,0,0.1,0,0.1,0l0.5-0.3l0.3-0.1h0.5h0.1
		c0.3,0.2,0.7,0.4,1,0.4v0.3c0,0,0.1,0.2,0.3,0.3c0.1,0.2,0.3,0.2,0.4,0.2h0.1c0,0.1,0.1,0.3,0.1,0.4s0.1,0.2,0.1,0.3
		c0,0.1,0,0.2,0.1,0.3l0.2,0.2c0.2,0.1,0.4,0.3,0.5,0.7c0.1,0,0.1,0.1,0.1,0.1l0.3,0.2c-0.1,0.1-0.2,0.2-0.2,0.2s0,0.1,0.1,0.2
		s0.2,0.2,0.3,0.2c-0.1,0.1-0.2,0.2-0.2,0.2c-0.1,0.1-0.1,0.2,0,0.3c0,0,0.1,0.1,0.1,0.2s0,0.1,0.1,0.2c0,0,0.1,0.1,0.1,0.2v0.1
		c-0.1,0-0.1,0.1-0.1,0.3v0.2l0,0c0,0.1-0.1,0.2-0.2,0.3c0,0,0,0.1-0.1,0.2c0,0.1-0.1,0.2-0.1,0.2c0,0.2-0.2,0.3-0.4,0.3h-0.3
		c0,0-0.1,0-0.2,0c-0.1,0-0.2,0.1-0.2,0.2c0,0,0,0.1-0.1,0.1c0,0-0.1,0.1-0.3,0.2l-0.6-0.1c-0.1,0.2-0.3,0.4-0.7,0.4
		c0-0.1-0.1-0.1-0.2-0.1c-0.1,0-0.2,0-0.2,0h-0.1c-0.1,0-0.1,0-0.1,0c-0.1-0.1-0.1-0.1-0.2-0.1s-0.1,0-0.2,0.1h-0.1v-0.1l0.1-0.1
		c0,0,0-0.1,0.1-0.1c0-0.2,0-0.3,0-0.3c-0.1,0-0.2,0-0.3-0.1s-0.2-0.2-0.2-0.3c-0.2-0.1-0.4-0.3-0.4-0.4c0,0,0-0.1,0-0.2
		s-0.1-0.2-0.1-0.2c-0.1-0.1-0.2-0.2-0.4-0.2l0.1-0.6c-0.1,0-0.2,0-0.2,0s-0.1-0.1,0-0.2c0-0.1,0-0.1,0.1-0.2c0-0.1,0-0.2-0.1-0.3
		l-0.1-0.1c0,0-0.1,0-0.1-0.1s0-0.2,0-0.3c0-0.1,0-0.2-0.1-0.3c-0.1-0.1-0.1-0.2-0.1-0.3c0-0.1,0.1-0.2,0.1-0.2v-0.1v-0.1
		c0-0.1-0.1-0.1-0.1-0.2c0,0-0.1-0.1-0.1-0.2c0,0,0-0.1,0.1-0.2V105C223.8,105,223.6,105.1,223.6,105z M224.1,122.3
		c0.1,0.1,0.2,0.2,0.4,0.2h0.2c0.2,0,0.4-0.1,0.5-0.2c0,0,0.1-0.1,0.2-0.1c0.1,0,0.1,0,0.2,0l0.7-0.7c0,0,0.1,0,0.2-0.1
		c0.1,0,0.1-0.1,0.1-0.1c0.2-0.2,0.4-0.4,0.5-0.6c0.1,0,0.1-0.1,0.1-0.3l0,0c0,0-0.1-0.1-0.1-0.2s-0.1-0.1-0.2-0.1h-0.1l-0.1-0.1
		c0-0.1-0.1-0.1-0.1-0.2c-0.1,0-0.1,0-0.2,0.1c0-0.1-0.1-0.2-0.1-0.2c-0.1,0-0.1,0-0.2,0.1c0-0.1-0.1-0.1-0.3-0.2s-0.3-0.2-0.3-0.3
		v-0.1l-0.3,0.2c-0.2,0.2-0.4,0.4-0.5,0.7c0,0.1-0.1,0.3-0.2,0.6c-0.1,0.2-0.2,0.4-0.2,0.6c-0.1,0.3-0.2,0.5-0.2,0.6v0.1v0.1
		c0,0,0,0.1-0.1,0.1c-0.1,0.1-0.1,0.1-0.1,0.2v0.1C223.9,122.5,224,122.3,224.1,122.3z M232.8,127.9c0,0,0-0.1,0-0.2s0-0.1,0-0.2
		s0.1-0.3,0.1-0.6v-0.4l0.1-0.3v-0.1c0-0.3,0.2-0.5,0.5-0.7l0.3-0.1c0.1,0,0.2,0.1,0.3,0.2s0.2,0.1,0.3,0.2l0.3,0.2
		c0.1,0.1,0.1,0.3,0.1,0.5s0,0.3,0.1,0.5s0.1,0.4,0.1,0.6v0.3v0.3c0,0,0,0,0.1,0.1v0.1c0,0.1,0,0.3,0.1,0.6c0,0.1,0,0.1,0.1,0.2
		c0,0.1,0,0.1,0.1,0.2c0,0.1,0,0.3,0.1,0.5v0.2c-0.1,0.1-0.1,0.3,0,0.4c0.1,0.1,0.2,0.2,0.2,0.3l0.1,0.3c0,0,0,0.1,0.1,0.1
		c0,0.1,0,0.1,0,0.2c-0.1,0.1,0,0.2,0.2,0.3c0,0.1,0.1,0.4,0.2,0.8c0,0.2,0,0.4,0.1,0.8c0.1,0.1,0.2,0.4,0.2,0.6c0,0.1,0,0.2,0,0.3
		c0.1,0,0.1,0.1,0.1,0.1s0,0.1,0,0.2v0.2c0.1,0.3,0.2,0.5,0.3,0.6v0.1c0,0,0,0.1,0.1,0.1c0,0.1,0.1,0.1,0.3,0.1h0.5
		c0.2,0,0.3-0.1,0.4,0c0.1,0.1,0.2,0.1,0.4,0.1s0.3-0.1,0.3-0.1c0.1,0,0.2,0,0.4,0h0.1c0.1,0,0.1,0,0.2,0c0.1,0,0.2,0,0.3,0
		c0.2-0.1,0.4-0.1,0.5,0l0.5-0.1c0.2,0,0.4,0,0.8-0.1l0.8-0.1c0,0,0.1-0.1,0.3-0.1c0.1,0,0.2-0.1,0.3-0.1s0.2-0.1,0.2-0.1
		c0.2-0.1,0.4-0.1,0.8-0.1c1.1-0.3,1.6-0.5,1.7-0.6c0-0.1,0.1-0.1,0.2-0.2c0.1-0.1,0.1-0.1,0.2-0.1c0.1,0,0.2-0.1,0.4-0.1
		s0.3-0.1,0.3-0.3c0,0,0,0,0.1,0h0.1c0-0.1,0.1-0.2,0.3-0.3c0.1-0.1,0.2-0.2,0.3-0.2l0.1-0.1c0-0.1,0-0.3,0.1-0.3
		c0.1-0.1,0.2-0.1,0.2-0.1c0.2,0,0.3,0.1,0.5,0.2c0.1,0,0.1,0.1,0.1,0.1s0.1,0.1,0.2,0.1c0,0,0,0-0.1,0.1l0.2,0.1v0.1h0.2v0.1
		c0,0.1,0,0.1,0.1,0.1v0.1v0.1c0.1,0,0.1,0.1,0.1,0.2c0,0.1-0.1,0.2-0.1,0.2c-0.1,0.4-0.3,0.7-0.5,0.8h0.1c-0.1,0-0.3,0.2-0.4,0.3
		l-0.1,0.1v0.1c-0.2,0.1-0.4,0.3-0.5,0.5c-0.1,0.1-0.3,0.2-0.5,0.2s-0.3,0.1-0.4,0.1l0.3,0.1l-0.2,0.2l-0.1-0.1l-0.1-0.1
		c-0.1,0.1-0.3,0.2-0.4,0.2v0.1h-0.1c-0.2,0.1-0.4,0.2-0.6,0.4c-0.1,0.1-0.2,0.1-0.3,0.1s-0.2,0-0.3-0.1v0.3
		c-0.1-0.1-0.2-0.1-0.3-0.1c-0.1,0.1-0.1,0.1-0.2,0.1l-0.2,0.3c-0.1,0.1-0.2,0.1-0.3,0h-0.1c0,0-0.1,0-0.2,0v-0.1
		c0,0-0.1,0.1-0.2,0.1s-0.2,0.1-0.3,0.1v0.1c0,0.1-0.1,0.1-0.2,0c-0.1-0.1-0.2-0.1-0.2-0.1s-0.1,0.1-0.2,0.2c-0.2,0-0.4,0-0.8,0
		l-0.1,0.1l-0.1,0.1h-0.4c-0.1-0.1-0.2-0.1-0.3,0c0,0-0.2,0-0.3,0h-0.1c-0.1-0.1-0.1-0.1-0.2-0.1l-0.1,0.1c-0.2,0-0.3-0.1-0.4-0.1
		c-0.1,0-0.2,0-0.3,0.1c0,0,0,0-0.1,0h-0.1H239c0,0-0.1,0-0.2-0.1v0.2c-0.2,0-0.3,0-0.3,0c-0.1-0.1-0.3-0.2-0.4-0.2
		c-0.1,0-0.2,0-0.5,0.1c0,0,0,0-0.1,0l0,0c-0.3,0-0.5,0-0.7,0.1h-0.1c0-0.1,0.1-0.2,0-0.2c0,0-0.1,0-0.2,0s-0.2,0-0.2,0l-0.1,0.2
		c0,0-0.1-0.1-0.2-0.3c0-0.1-0.1-0.2-0.3-0.1c0,0-0.1,0-0.3,0.1c0.1-0.1,0.1-0.3-0.1-0.4c0-0.2-0.1-0.3-0.3-0.3l0,0
		c0-0.1-0.1-0.2-0.3-0.3s-0.3-0.1-0.3-0.2c0-0.1,0-0.2,0-0.3s0-0.1-0.1-0.2V136c0-0.1,0-0.1,0.1-0.2c-0.1,0-0.2,0-0.2-0.1
		c0,0,0-0.1,0-0.2l-0.1-0.3v-0.1c0-0.1,0.1-0.2,0-0.3c0-0.1-0.1-0.2-0.1-0.3c0.1-0.1,0.1-0.2,0-0.3s-0.1-0.2-0.1-0.3s0-0.2,0-0.4
		s0-0.3-0.1-0.4v-0.4c0-0.1,0-0.2,0-0.3v-0.1c0,0,0-0.1-0.1-0.1c0-0.1,0-0.2,0-0.3s-0.1-0.2-0.1-0.2c0-0.1,0-0.2,0-0.3s0-0.2,0-0.3
		s-0.1-0.1-0.1-0.1c0-0.1,0-0.3,0-0.5s-0.1-0.4-0.1-0.6s-0.1-0.4-0.1-0.6v-0.1c0-0.1,0-0.2-0.1-0.3v-0.1c0-0.1,0-0.2,0-0.3
		s0-0.2,0-0.3v-0.1c0-0.1,0.1-0.2,0.1-0.2S232.9,128.1,232.8,127.9z M242.2,118.1l0.2,0.5c0,0.3,0.1,0.7,0.3,1l-0.1,0.1
		c-0.1,0-0.1,0-0.1,0.1s0,0.2,0,0.3s0.1,0.2,0.2,0.2v0.1c0,0,0,0.1,0.1,0.2v0.1c0,0.1,0,0.1,0,0.2s0,0.1,0,0.1
		c-0.2,0.1-0.3,0.2,0,0.4h-0.1c-0.1,0-0.1,0.1-0.1,0.1v0.1c0.1,0.2,0,0.4-0.3,0.6c0,0.1-0.1,0.2-0.1,0.3c0,0.1-0.1,0.2-0.3,0.3
		l-0.6,0.3c0,0-0.1,0-0.2-0.1c-0.1,0-0.2-0.1-0.3-0.1s-0.1,0-0.1,0.1s-0.1,0.2-0.1,0.2c-0.3-0.2-0.5-0.3-0.6-0.4h-0.1
		c0,0.1,0,0.2,0.1,0.3c-0.1,0-0.2,0-0.2-0.1s0-0.1,0-0.1l-0.1-0.1c0,0-0.1-0.1-0.2-0.1c0,0-0.1,0-0.3,0c-0.2-0.4-0.3-0.6-0.3-0.6
		V122c0.1-0.1,0.1-0.1,0.1-0.2s0-0.2-0.1-0.3c0-0.1-0.1-0.2-0.1-0.2c0-0.1-0.1-0.2-0.2-0.3c-0.1-0.1-0.1-0.2-0.2-0.4l-0.1-0.1
		l-0.1-0.1c0-0.1-0.1-0.3,0-0.3c0-0.1,0.1-0.1,0.1-0.2l0.1-0.1l-0.4-0.3c0.2-0.1,0.2-0.3,0-0.4c-0.1-0.1-0.2-0.3-0.2-0.5
		c0-0.1,0-0.3,0.1-0.4c-0.1-0.1-0.2-0.2-0.2-0.3c0-0.1,0-0.1,0-0.2s0-0.2-0.1-0.3c-0.1-0.1-0.2-0.2-0.2-0.3c0,0,0-0.1,0-0.2
		s0-0.1,0-0.2s-0.1-0.2-0.2-0.3c-0.2-0.2-0.4-0.3-0.8-0.4c-0.3-0.1-0.6,0-1,0.2c-0.1,0.1-0.1,0.1-0.2,0.1c-0.1,0-0.1,0-0.1-0.1
		c-0.2-0.1-0.3-0.2-0.3-0.3v-0.1c0.1-0.4,0.2-0.7,0.3-0.8c0.2-0.5,0.5-0.8,1-1c0.4-0.2,0.8-0.3,1-0.3c0,0,0.1,0,0.2,0
		c0.1,0,0.1,0,0.2,0c0.2,0,0.3-0.1,0.4-0.1c0.2,0,0.3,0,0.4,0.1h0.4c0,0,0.1,0,0.3,0c0,0.1,0.1,0.2,0.3,0.2c0,0,0.1,0,0.3,0
		c0.1,0,0.2,0.1,0.2,0.3c0,0,0.1,0,0.1,0.1c0,0,0.1,0,0.1,0.1c0.4,0.3,0.6,0.5,0.6,0.6l0.2,0.2c0.2,0.1,0.3,0.2,0.3,0.3
		c0,0.1,0,0.3,0.1,0.3c0.1,0.1,0.2,0.2,0.2,0.2c0,0.1,0.1,0.2,0.2,0.3c0.1,0.1,0.2,0.3,0.2,0.4v0.1c0,0.1,0,0.1,0,0.2s0,0.1,0.1,0.1
		s0.1,0.1,0.2,0.2c0,0.1,0.1,0.2,0.1,0.2s0,0,0.1,0.1C242.1,118.1,242.1,118.1,242.2,118.1z M243.1,118.1c0.1-0.1,0.2-0.1,0.2-0.1
		c0-0.1,0-0.3,0-0.4s0.1-0.3,0.3-0.3c0,0,0.1,0,0.2-0.1c0.1,0,0.1-0.1,0.2-0.1h0.2h0.1c0,0,0,0,0.1,0c0.1-0.1,0.2-0.1,0.3-0.1
		s0.2,0,0.2,0c0.1,0,0.2,0,0.3,0s0.2,0,0.2,0h0.1h0.8c0.1,0,0.2,0,0.3-0.1c0.1,0,0.2-0.1,0.3-0.1s0.1,0,0.2,0c0.2,0.1,0.3,0,0.3-0.1
		h0.4h0.2c0.4,0,0.6-0.1,0.7-0.1c0.1,0,0.2,0,0.4,0s0.3,0,0.4-0.1c0,0,0,0,0.1,0s0.1,0,0.1,0c0.1,0.1,0.2,0.1,0.3,0.1
		s0.1-0.1,0.2-0.1c0.1-0.1,0.1-0.1,0.2-0.1c0.1,0,0.2,0.1,0.2,0.2h0.7c0.3,0,0.6,0.1,0.7,0.2c0.3,0.2,0.6,0.4,0.7,0.5
		c0.2,0.2,0.3,0.3,0.3,0.5c0,0.1,0,0.3-0.1,0.4c0,0,0.1,0.1,0,0.2c0,0.1-0.1,0.2-0.2,0.3c0,0,0,0-0.1,0.1v0.1c0,0.2-0.1,0.4-0.3,0.5
		l-0.3,0.2c-0.1-0.1-0.2,0-0.3,0.2c-0.3,0-0.4,0-0.5,0c0,0-0.1,0.1-0.1,0.3c-0.1,0-0.2-0.1-0.3-0.1c0,0-0.1,0.1-0.2,0.2l0,0
		l-0.5,0.1v0.1l-0.1-0.1c-0.1,0-0.1,0-0.1,0.1l-0.5-0.1h-0.1c0,0.1,0,0.2-0.1,0.2s-0.2,0-0.2,0.1l-0.4-0.3v0.2c0,0-0.2-0.1-0.3-0.1
		c0,0-0.1,0-0.1,0.1c-0.1,0-0.1,0-0.2,0.1l-0.1-0.3c-0.1,0.1-0.2,0.1-0.3,0.2s-0.2,0.1-0.2,0.1l-0.1-0.3c-0.1,0-0.3-0.1-0.4-0.1
		c-0.1,0-0.3,0.1-0.4,0.2c0-0.2-0.1-0.3-0.2-0.3h-0.1h-0.1L246,120c0-0.1-0.1-0.1-0.1-0.1s-0.1,0-0.1,0.1c-0.2,0.1-0.3,0-0.4-0.1
		c0-0.1-0.1-0.1-0.1-0.2c-0.1,0-0.1-0.1-0.1-0.1s-0.1-0.1-0.2-0.1c-0.1,0-0.2-0.1-0.3-0.2c-0.1,0-0.2,0.1-0.3,0.1s-0.1-0.1-0.1-0.2
		s0-0.2,0-0.3c-0.3,0-0.4,0-0.4-0.1v-0.1C243.5,118.6,243.4,118.4,243.1,118.1z"/>
	<path class="st0" d="M257.5,111.7L257.5,111.7c-0.1-0.2-0.1-0.3-0.1-0.4s0.1-0.1,0.1-0.2s0.2-0.2,0.3-0.3h0.1
		c0.1-0.2,0.3-0.3,0.6-0.4c0.1,0,0.2-0.1,0.3-0.1s0.2-0.1,0.3-0.1c0.2,0,0.4,0,0.7-0.1c0.3,0,0.5-0.1,0.7-0.1c0.1,0,0.2,0,0.4,0
		c0.2,0,0.3-0.1,0.4-0.1l0,0c0,0,0,0,0.1,0c0.2,0,0.4,0,0.5,0h0.1c0.3,0,0.6,0,0.8,0c0.1-0.1,0.3-0.1,0.4-0.1c0,0,0.1,0,0.3,0
		c0.1-0.1,0.2-0.1,0.3-0.1s0.2,0,0.3,0.1c0.1,0,0.2,0,0.3,0s0.2,0,0.3,0s0.2,0,0.4-0.1c0.2,0,0.3-0.1,0.4-0.1h0.1
		c0.1,0.1,0.3,0.1,0.4,0c0.1,0,0.2-0.1,0.3-0.1l0.3,0.2l0,0c0,0.2,0.2,0.3,0.5,0.3c0.1,0,0.1,0,0.1,0.1c0,0.2,0,0.3,0.1,0.3
		s0.2,0,0.2,0c0.1,0.1,0.2,0.2,0.4,0.2c0.1,0,0.2,0.2,0.2,0.4c0,0.1,0.1,0.2,0.3,0.4c0,0.1-0.1,0.1-0.1,0.1v0.4v0.1
		c0.1,0.1,0.1,0.2,0.1,0.3c0,0.1,0,0.2,0,0.3c0,0.1,0,0.2,0,0.3c-0.1,0.1-0.2,0.2-0.3,0.5s-0.2,0.4-0.4,0.5c-0.1,0-0.1,0.1-0.1,0.2
		c0,0.2-0.1,0.3-0.2,0.4s-0.2,0.2-0.3,0.2c0,0,0,0.1-0.1,0.1c0,0,0,0.1,0,0.2c-0.2,0-0.3,0.1-0.3,0.3v0.1v0.1l-0.1,0.1
		c-0.2,0-0.3,0.1-0.3,0.2v0.1v0.3h-0.2c-0.1,0-0.2,0.1-0.2,0.2s-0.1,0.2-0.2,0.2c0,0-0.1,0-0.2,0.1l-0.3,0.4c0,0,0,0,0,0.1
		s0,0.1,0,0.1l-0.5,0.5c0,0-0.1,0.1-0.2,0.1s-0.1,0.1-0.2,0.1l-0.2,0.1c0,0.1-0.1,0.2-0.1,0.2c0,0.1-0.1,0.2-0.1,0.3
		c-0.2-0.1-0.3-0.1-0.3-0.1s-0.1,0.1-0.1,0.3c-0.1,0.2-0.2,0.3-0.2,0.3c0-0.1-0.1-0.1-0.1-0.1s0,0-0.1,0H263v0.1
		c0,0.2,0,0.3-0.1,0.4c0,0.1-0.1,0.1-0.3,0.1c-0.1,0-0.2,0-0.3,0.1l0.1,0.1l-0.1,0.1c-0.1-0.2-0.3-0.2-0.4,0c0,0-0.1,0-0.1,0.1
		c0,0.2-0.1,0.3-0.1,0.4l-0.2-0.1c0,0.2-0.2,0.3-0.3,0.3c-0.2,0-0.3,0.1-0.3,0.1c-0.1,0.1-0.3,0.3-0.4,0.4s-0.3,0.1-0.4,0.1
		s-0.1,0-0.1,0s-0.1-0.1-0.3-0.1c0,0,0,0-0.1,0.1v0.1v-0.1c-0.2,0-0.3,0.1-0.5,0.1v-0.1c0,0-0.1-0.1-0.3-0.3
		c-0.1-0.1-0.3-0.2-0.4-0.3c-0.1-0.1-0.4-0.2-0.6-0.2v-0.2c0-0.1,0-0.2-0.1-0.3c0,0-0.1,0-0.1-0.1l-0.1-0.3c0,0,0-0.1,0.1-0.1
		c0,0,0-0.1-0.1-0.1c0.2-0.7,0.4-1.1,0.5-1.3l0.4-0.4c0,0,0.1-0.1,0.2-0.1s0.2-0.2,0.2-0.3l0.1-0.1h0.1c0,0,0.1,0,0.1-0.1
		s0.1-0.2,0.2-0.2s0.2-0.1,0.3-0.1s0.1-0.1,0.2-0.2c0,0,0-0.1,0.1-0.1l0.1-0.1c0,0,0.1,0,0.2,0l0.1-0.1c0-0.1,0.2-0.3,0.4-0.5
		c0.2-0.2,0.3-0.3,0.4-0.4h0.1c0.1,0,0.2,0,0.2-0.1c0,0,0.1-0.1,0.1-0.2s0.1-0.2,0.1-0.2s0.1-0.1,0.2-0.1s0.2-0.1,0.2-0.1
		c0.1-0.1,0.2-0.2,0.3-0.2c0.1-0.1,0.1-0.2,0.2-0.3c0.1-0.1,0.2-0.3,0.3-0.3s0.1-0.1,0.2-0.1c0-0.1,0.1-0.1,0.1-0.1s0-0.1-0.1-0.2
		c0,0-0.1,0-0.2,0s-0.1,0-0.2,0s-0.1,0.1-0.2,0.1s-0.1,0-0.2-0.1s-0.1-0.1-0.1-0.1c-0.1,0.1-0.3,0.2-0.5,0.2v0.1c-0.1,0-0.2,0-0.4,0
		c0-0.1,0-0.2-0.1-0.2c0,0-0.1,0-0.2,0.1c-0.1-0.1-0.2-0.1-0.2-0.1s-0.1,0.1-0.1,0.2c-0.1-0.1-0.1-0.1-0.1-0.2h-0.1h-0.3H260h-0.1
		c-0.1,0-0.2,0.1-0.2,0.1s-0.1-0.1-0.2-0.2c-0.1,0.1-0.2,0.1-0.5,0c-0.2-0.1-0.4-0.1-0.4,0.1c0,0-0.1,0-0.2-0.1s-0.1-0.1-0.1-0.1
		s-0.1,0-0.1,0.1l0.2-0.3h-0.2c-0.1-0.2-0.3-0.4-0.4-0.5c-0.1,0-0.1-0.1-0.1-0.1v-0.1C257.7,112.3,257.4,111.8,257.5,111.7z
		 M265.4,118.9c-0.1-0.1-0.1-0.2-0.1-0.3c0-0.1,0.1-0.2,0.2-0.3l0.1-0.1l0.1-0.1c0,0,0.3-0.3,0.9-0.7h0.1c0.4,0,0.7,0.1,0.9,0.2
		c0.1,0,0.1,0,0.2,0.1s0.3,0.2,0.4,0.4h0.3c0,0.2,0.1,0.3,0.4,0.4c0,0,0.1,0,0.1,0.1s0.1,0.1,0.1,0.1l0.1,0.1c0.2,0,0.4,0.1,0.4,0.2
		c0,0,0,0.1-0.1,0.2c0.3,0.1,0.5,0.2,0.5,0.3c0,0,0.1,0.3,0.1,0.6l0.6,0.4c-0.1,0.2-0.1,0.3-0.1,0.4s0,0.2,0,0.2
		c0.1,0.1,0.1,0.3,0.2,0.3c0.1,0.1,0.2,0.2,0.2,0.3c-0.2,0-0.3,0.1-0.3,0.2v0.3c0,0.1-0.1,0.2-0.2,0.3c0,0-0.2,0.2-0.4,0.5v0.3v0.3
		c-0.1-0.2-0.2-0.3-0.3-0.3s-0.2,0-0.3,0.1h-0.1c-0.1,0-0.1,0-0.1,0l-0.4,0.3c-0.1-0.1-0.2-0.1-0.2-0.1s-0.1,0.1-0.1,0.2
		c-0.1-0.1-0.1-0.2,0-0.3c0.1-0.1,0.1-0.2,0.2-0.2c0,0,0,0-0.1,0s-0.3,0.1-0.4,0.2c-0.1,0-0.1-0.1-0.2-0.1s-0.1,0-0.1-0.1
		c-0.1-0.1-0.3-0.2-0.4-0.2c0,0-0.1,0-0.2,0c-0.2,0-0.3-0.1-0.3-0.2s0-0.1,0-0.2s0-0.1-0.1-0.1c-0.1-0.1-0.1-0.2-0.1-0.3
		c0,0,0.1-0.1,0.2-0.2c0,0-0.1-0.1-0.1-0.2c-0.1-0.1-0.2-0.1-0.3-0.2c-0.1,0-0.2-0.2-0.2-0.4c0-0.1-0.1-0.2-0.2-0.2
		c-0.1-0.1-0.1-0.2-0.1-0.3c0-0.1,0-0.3,0.1-0.4h-0.2c-0.2,0-0.3-0.1-0.3-0.2v-0.1l0,0l0,0V120c0-0.1,0-0.1,0-0.2
		c0,0-0.1-0.1-0.2-0.1v-0.1v-0.1c-0.1,0-0.1-0.1-0.1-0.1S265.5,119,265.4,118.9z M272.3,127c0,0,0-0.1,0-0.2s0-0.1,0-0.2
		s0.1-0.3,0.1-0.6v-0.4l0.1-0.3v-0.1c0-0.3,0.2-0.5,0.5-0.7l0.3-0.1c0.1,0,0.2,0.1,0.3,0.2s0.2,0.1,0.3,0.2l0.3,0.2
		c0.1,0.1,0.1,0.3,0.1,0.5s0,0.3,0.1,0.5s0.1,0.4,0.1,0.6v0.3v0.3c0,0,0,0,0.1,0.1v0.1c0,0.1,0,0.3,0.1,0.6c0,0.1,0,0.1,0.1,0.2
		c0,0.1,0,0.1,0.1,0.2c0,0.1,0,0.3,0.1,0.5v0.2c-0.1,0.1-0.1,0.3,0,0.4c0.1,0.1,0.2,0.2,0.2,0.3l0.1,0.3c0,0,0,0.1,0.1,0.1
		c0,0.1,0,0.1,0,0.2c-0.1,0.1,0,0.2,0.2,0.3c0,0.1,0.1,0.4,0.2,0.8c0,0.2,0,0.4,0.1,0.8c0.1,0.1,0.2,0.4,0.2,0.6c0,0.1,0,0.2,0,0.3
		c0.1,0,0.1,0.1,0.1,0.1s0,0.1,0,0.2v0.2c0.1,0.3,0.2,0.5,0.3,0.6v0.1c0,0,0,0.1,0.1,0.1c0,0.1,0.1,0.1,0.3,0.1h0.5
		c0.2,0,0.3-0.1,0.4,0s0.2,0.1,0.4,0.1c0.2,0,0.3-0.1,0.3-0.1c0.1,0,0.2,0,0.4,0h0.1c0.1,0,0.1,0,0.2,0s0.2,0,0.3,0
		c0.2-0.1,0.4-0.1,0.5,0l0.5-0.1c0.2,0,0.4,0,0.8-0.1l0.8-0.1c0,0,0.1-0.1,0.3-0.1c0.1,0,0.2-0.1,0.3-0.1s0.2-0.1,0.2-0.1
		c0.2-0.1,0.4-0.1,0.8-0.1c1.1-0.3,1.6-0.5,1.7-0.6c0-0.1,0.1-0.1,0.2-0.2c0.1,0,0.1-0.1,0.2-0.1s0.2-0.1,0.4-0.1
		c0.2,0,0.3-0.1,0.3-0.3c0,0,0,0,0.1,0h0.1c0-0.1,0.1-0.2,0.3-0.3c0.1-0.1,0.2-0.2,0.3-0.2l0.1-0.1c0-0.1,0-0.3,0.1-0.3
		c0.1-0.1,0.2-0.1,0.2-0.1c0.2,0,0.3,0.1,0.5,0.2c0.1,0,0.1,0.1,0.1,0.1s0.1,0.1,0.2,0.1c0,0,0,0-0.1,0.1l0.2,0.1v0.1h0.2v0.1
		c0,0.1,0,0.1,0.1,0.1v0.1v0.1c0.1,0,0.1,0.1,0.1,0.2c0,0.1-0.1,0.2-0.1,0.2c-0.1,0.4-0.3,0.7-0.5,0.8h0.1c-0.1,0-0.3,0.2-0.4,0.3
		l-0.1,0.1v0.1c-0.2,0.1-0.4,0.3-0.5,0.5c-0.1,0.1-0.3,0.2-0.5,0.2s-0.3,0.1-0.4,0.1l0.3,0.1l-0.2,0.2l-0.1-0.1l-0.1-0.1
		c-0.1,0.1-0.3,0.2-0.4,0.2v0.1H286c-0.2,0.1-0.4,0.2-0.6,0.4c-0.1,0.1-0.2,0.1-0.3,0.1s-0.2,0-0.3-0.1v0.3
		c-0.1-0.1-0.2-0.1-0.3-0.1c-0.1,0.1-0.1,0.1-0.2,0.1l-0.2,0.3c-0.1,0.1-0.2,0.1-0.3,0h-0.1c0,0-0.1,0-0.2,0v-0.1
		c0,0-0.1,0.1-0.2,0.1s-0.2,0.1-0.3,0.1v0.1c0,0.1-0.1,0.1-0.2,0s-0.2-0.1-0.2-0.1s-0.1,0.1-0.2,0.2c-0.2,0-0.4,0-0.8,0l-0.1,0.1
		l-0.1,0.1H281c-0.1-0.1-0.2-0.1-0.3,0c0,0-0.2,0-0.3,0h-0.1c-0.1-0.1-0.1-0.1-0.2-0.1l-0.1,0.1c-0.2,0-0.3-0.1-0.4-0.1
		s-0.2,0-0.3,0.1c0,0,0,0-0.1,0h-0.1h-1c0,0-0.1,0-0.2-0.1v0.2c-0.2,0-0.3,0-0.3,0c-0.1-0.1-0.3-0.2-0.4-0.2s-0.2,0-0.5,0.1
		c0,0,0,0-0.1,0l0,0c-0.3,0-0.5,0-0.7,0.1h-0.1c0-0.1,0.1-0.2,0-0.2c0,0-0.1,0-0.2,0s-0.2,0-0.2,0l-0.1,0.2c0,0-0.1-0.1-0.2-0.3
		c0-0.1-0.1-0.2-0.3-0.1c0,0-0.1,0-0.3,0.1c0.1-0.1,0.1-0.3-0.1-0.4c0-0.2-0.1-0.3-0.3-0.3l0,0c0-0.1-0.1-0.2-0.3-0.3
		c-0.2-0.1-0.3-0.1-0.3-0.2c0-0.1,0-0.2,0-0.3s0-0.1-0.1-0.2v-0.1c0-0.1,0-0.1,0.1-0.2c-0.1,0-0.2,0-0.2-0.1c0,0,0-0.1,0-0.2
		l-0.1-0.3v-0.1c0-0.1,0.1-0.2,0-0.3s-0.1-0.2-0.1-0.3c0.1-0.1,0.1-0.2,0-0.3s-0.1-0.2-0.1-0.3s0-0.2,0-0.4s0-0.3-0.1-0.4v-0.4
		c0-0.1,0-0.2,0-0.3v-0.1c0,0,0-0.1-0.1-0.1c0-0.1,0-0.2,0-0.3s-0.1-0.2-0.1-0.2c0-0.1,0-0.2,0-0.3s0-0.2,0-0.3s-0.1-0.1-0.1-0.1
		c0-0.1,0-0.3,0-0.5s-0.1-0.4-0.1-0.6s-0.1-0.4-0.1-0.6v-0.1c0-0.1,0-0.2-0.1-0.3v-0.1c0-0.1,0-0.2,0-0.3c0-0.1,0-0.2,0-0.3v-0.1
		C272.3,127.1,272.4,127,272.3,127C272.4,127,272.4,127.2,272.3,127z M281.7,117.2l0.2,0.5c0,0.3,0.1,0.7,0.3,1l-0.1,0.1
		c-0.1,0-0.1,0-0.1,0.1s0,0.2,0,0.3s0.1,0.2,0.2,0.2v0.1c0,0,0,0.1,0.1,0.2v0.1c0,0.1,0,0.1,0,0.2s0,0.1,0,0.1
		c-0.2,0.1-0.3,0.2,0,0.4h-0.1c-0.1,0-0.1,0.1-0.1,0.1v0.1c0.1,0.2,0,0.4-0.3,0.6c0,0.1-0.1,0.2-0.1,0.3c0,0.1-0.1,0.2-0.3,0.3
		l-0.6,0.3c0,0-0.1,0-0.2-0.1c-0.1,0-0.2-0.1-0.3-0.1s-0.1,0-0.1,0.1s-0.1,0.2-0.1,0.2c-0.3-0.2-0.5-0.3-0.6-0.4h-0.1
		c0,0.1,0,0.2,0.1,0.3c-0.1,0-0.2,0-0.2-0.1s0-0.1,0-0.1l-0.1-0.1c0,0-0.1-0.1-0.2-0.1c0,0-0.1,0-0.3,0c-0.2-0.4-0.3-0.6-0.3-0.6
		v-0.1c0.1-0.1,0.1-0.1,0.1-0.2s0-0.2-0.1-0.3c0-0.1-0.1-0.2-0.1-0.2c0-0.1-0.1-0.2-0.2-0.3c-0.1-0.1-0.1-0.2-0.2-0.4l-0.1-0.1
		l-0.1-0.1c0-0.1-0.1-0.3,0-0.3c0-0.1,0.1-0.1,0.1-0.2l0.1-0.1l-0.4-0.3c0.2-0.1,0.2-0.3,0-0.4c-0.1-0.1-0.2-0.3-0.2-0.5
		c0-0.1,0-0.3,0.1-0.4c-0.1-0.1-0.2-0.2-0.2-0.3c0-0.1,0-0.1,0-0.2s0-0.2-0.1-0.3c-0.1-0.1-0.2-0.2-0.2-0.3c0,0,0-0.1,0-0.2
		s0-0.1,0-0.2s-0.1-0.2-0.2-0.3c-0.2-0.2-0.4-0.3-0.8-0.4c-0.3-0.1-0.6,0-1,0.2c-0.1,0.1-0.1,0.1-0.2,0.1s-0.1,0-0.1-0.1
		c-0.2-0.1-0.3-0.2-0.3-0.3v-0.1c0.1-0.4,0.2-0.7,0.3-0.8c0.2-0.5,0.5-0.8,1-1c0.4-0.2,0.8-0.3,1-0.3c0,0,0.1,0,0.2,0s0.1,0,0.2,0
		c0.2,0,0.3-0.1,0.4-0.1c0.2,0,0.3,0,0.4,0.1h0.4c0,0,0.1,0,0.3,0c0,0.1,0.1,0.2,0.3,0.2c0,0,0.1,0,0.3,0c0.1,0,0.2,0.1,0.2,0.3
		c0,0,0.1,0,0.1,0.1c0,0,0.1,0,0.1,0.1c0.4,0.3,0.6,0.5,0.6,0.6l0.2,0.2c0.2,0.1,0.3,0.2,0.3,0.3c0,0.1,0,0.3,0.1,0.3
		c0.1,0.1,0.2,0.2,0.2,0.2c0,0.1,0.1,0.2,0.2,0.3c0.1,0.1,0.2,0.3,0.2,0.4v0.1c0,0.1,0,0.1,0,0.2s0,0.1,0.1,0.1s0.1,0.1,0.2,0.2
		c0,0.1,0.1,0.2,0.1,0.2s0,0,0.1,0.1C281.6,117.2,281.6,117.2,281.7,117.2z M282.6,117.2c0.1-0.1,0.2-0.1,0.2-0.1c0-0.1,0-0.3,0-0.4
		c0-0.2,0.1-0.3,0.3-0.3c0,0,0.1,0,0.2-0.1c0.1,0,0.1-0.1,0.2-0.1h0.2h0.1c0,0,0,0,0.1,0c0.1-0.1,0.2-0.1,0.3-0.1s0.2,0,0.2,0
		c0.1,0,0.2,0,0.3,0s0.2,0,0.2,0h0.1h0.8c0.1,0,0.2,0,0.3-0.1c0.1,0,0.2-0.1,0.3-0.1s0.1,0,0.2,0c0.2,0.1,0.3,0,0.3-0.1h0.4h0.2
		c0.4,0,0.6-0.1,0.7-0.1s0.2,0,0.4,0c0.2,0,0.3,0,0.4-0.1c0,0,0,0,0.1,0s0.1,0,0.1,0c0.1,0.1,0.2,0.1,0.3,0.1s0.1-0.1,0.2-0.1
		c0.1-0.1,0.1-0.1,0.2-0.1s0.1,0.1,0.2,0.2h0.7c0.3,0,0.6,0.1,0.7,0.2c0.3,0.2,0.6,0.4,0.7,0.5c0.2,0.2,0.3,0.3,0.3,0.5
		c0,0.1,0,0.3-0.1,0.4c0,0,0.1,0.1,0,0.2c0,0.1-0.1,0.2-0.2,0.3c0,0,0,0-0.1,0.1v0.1c0,0.2-0.1,0.4-0.3,0.5l-0.3,0.2
		c-0.1-0.1-0.2,0-0.3,0.2c-0.3,0-0.4,0-0.5,0c0,0-0.1,0.1-0.1,0.3c-0.1,0-0.2-0.1-0.3-0.1c0,0-0.1,0.1-0.2,0.2l0,0l-0.5,0.1v0.1
		l-0.1-0.1c-0.1,0-0.1,0-0.1,0.1l-0.5-0.1h-0.1c0,0.1,0,0.2-0.1,0.2s-0.2,0-0.2,0.1l-0.4-0.3v0.2c0,0-0.2-0.1-0.3-0.1
		c0,0-0.1,0-0.1,0.1s-0.1,0-0.2,0.1l-0.1-0.3c-0.1,0.1-0.2,0.1-0.3,0.2c-0.1,0-0.2,0.1-0.2,0.1l-0.1-0.3c-0.1,0-0.3-0.1-0.4-0.1
		s-0.3,0.1-0.4,0.2c0-0.2-0.1-0.3-0.2-0.3h-0.1h-0.1l-0.1-0.1c0-0.1-0.1-0.1-0.1-0.1s-0.1,0-0.1,0.1c-0.2,0.1-0.3,0-0.4-0.1
		c0-0.1-0.1-0.1-0.1-0.2c-0.1,0-0.1-0.1-0.1-0.1s-0.1-0.1-0.2-0.1s-0.2-0.1-0.3-0.2c-0.1,0-0.2,0.1-0.3,0.1s-0.1-0.1-0.1-0.2
		s0-0.2,0-0.3c-0.3,0-0.4,0-0.4-0.1v-0.1C283.1,117.7,282.9,117.5,282.6,117.2z"/>
</g>
<g>
	<path class="st0" d="M107.5,165.9c0.1-0.1,0.1-0.2,0.2-0.3s0.1-0.2,0.2-0.3l0.2-0.2c0.1-0.1,0.2-0.2,0.2-0.3
		c0.1-0.1,0.1-0.2,0.2-0.3c0.7-0.8,1.2-1.8,1.5-2.9c0.1-0.4,0.2-0.7,0.4-1.1c0.2-0.6,0.3-1,0.4-1.3c0-0.1,0-0.1,0.1-0.2
		c0-0.1,0.1-0.2,0.1-0.3c0.2-0.4,0.3-0.7,0.4-1s0.1-0.5,0.1-0.8c0-0.2,0.1-0.4,0.2-0.6c0.1-0.1,0.1-0.2,0.2-0.2s0.1-0.1,0.2-0.1
		s0.1,0,0.2,0.1c0.1,0,0.1,0.1,0.2,0.1s0.1,0,0.1,0.1c0,0.2,0.1,0.3,0.1,0.4c0,0.1,0,0.2,0,0.3c0.1,0.5,0.2,0.9,0.2,1.1
		c0.1,0.4,0.1,0.7,0.3,1c0.5,1.3,0.9,2.4,1.2,3.4c0.3,1.1,0.6,2,0.8,2.8c0,0.1,0,0.2,0,0.2c0,0.1,0,0.3-0.1,0.3
		c-0.1,0.2-0.3,0.3-0.5,0.3c-0.1,0-0.2,0-0.3-0.1s-0.1-0.1-0.1-0.3c-0.1-0.4-0.3-1-0.5-1.9c0-0.1-0.1-0.2-0.1-0.3s0-0.2,0-0.3
		s-0.1-0.2-0.1-0.2c-0.1,0-0.1-0.1-0.1-0.1h-1.2c-0.5,0-0.9,0-1.2-0.1c-0.1,0-0.2,0-0.3,0.1c-0.1,0-0.1,0.1-0.2,0.3
		c-0.6,1-1.2,1.8-1.8,2.4c-0.1,0.1-0.2,0.2-0.3,0.3l-0.3,0.2c0,0-0.1-0.1-0.1-0.2C107.7,166,107.6,165.9,107.5,165.9z M111.9,158.8
		c-0.1,0.2-0.2,0.5-0.3,0.7s-0.2,0.5-0.3,0.9c-0.1,0.4-0.2,0.7-0.3,0.9c-0.1,0.2-0.2,0.5-0.3,0.7c0.5,0,0.8,0,0.9-0.1
		c0.5,0,0.9-0.1,1.2-0.1c-0.1-0.3-0.3-0.7-0.4-1.1s-0.2-0.7-0.3-0.9C112.1,159.7,112,159.4,111.9,158.8z"/>
	<path class="st0" d="M126.7,157.1c0,0-0.1,0-0.2,0s-0.2,0-0.2,0c-0.2,0-0.4-0.1-0.7-0.1c-0.3,0-0.5-0.1-0.6-0.1s-0.3,0-0.6,0h-0.5
		c-0.5,0-0.9,0.1-1.2,0.2c-0.1,0.1-0.3,0.2-0.7,0.4c0,0-0.1,0.1-0.1,0.2c0,0.1-0.1,0.2-0.1,0.2s-0.1,0.1-0.2,0.1s-0.1,0-0.2-0.1
		c0-0.1-0.1-0.1-0.1-0.2c0-0.1-0.1-0.2-0.1-0.3s0-0.2,0.1-0.3c0-0.1,0.1-0.2,0.2-0.3c0.5-0.5,1.2-0.8,2.1-0.9c0.2,0,0.5,0,0.7,0h0.7
		c0.3,0,0.5,0,0.7,0c0.4,0,0.6,0,0.9,0c0.2,0,0.5,0.1,0.7,0.1s0.3,0.1,0.4,0.2c0.1,0.1,0.2,0.2,0.3,0.3c0.2,0.3,0.3,0.5,0.3,0.8
		c0,0.1,0,0.2-0.1,0.4s-0.2,0.5-0.4,1c-0.1,0.3-0.2,0.5-0.3,0.6l-0.1,0.3c-0.2,0.5-0.4,0.9-0.5,1.2l0.1,0.1h0.1c0.2,0,0.4,0,0.5,0.1
		s0.3,0.2,0.5,0.3c0.1,0.1,0.1,0.1,0.2,0.2c0,0.1,0.1,0.1,0.1,0.3c0.1,0.2,0.1,0.4,0.1,0.6c0,0.3-0.1,0.5-0.2,0.8
		c-0.3,0.5-0.5,0.8-0.6,1.1c-0.2,0.4-0.5,1.1-0.9,1.9c-0.3,0.5-0.6,0.9-0.8,1.1v0.1c0,0-0.1,0-0.1,0.1c-0.1-0.1-0.2-0.2-0.2-0.4
		v-0.3c0.1-0.7,0.3-1.5,0.7-2.4c0.3-0.6,0.6-1.2,0.8-1.8c0.1-0.2,0.1-0.4,0.1-0.5c0,0-0.1,0-0.3-0.1c-0.2,0-0.3-0.1-0.4-0.1
		c-0.2,0-0.3,0.1-0.5,0.2c0,0-0.1,0.1-0.2,0.1c-0.1,0.1-0.1,0.1-0.2,0.1s-0.1,0.1-0.2,0.1s-0.2,0-0.3-0.1c0,0.2,0,0.5,0,0.7
		s0,0.4,0.1,0.6v0.5c0,0.2-0.1,0.3-0.2,0.4c-0.1,0.1-0.2,0.2-0.4,0.2c-0.1,0-0.2,0-0.3-0.1l-0.1-0.1l-0.1-0.1c0-0.1,0-0.1,0-0.2
		v-0.1c0-0.1,0-0.2,0-0.3c0-0.2,0-0.4,0-0.5c0-0.3,0-0.6,0-1c0-0.3-0.1-0.7-0.1-1.2v-0.2l-0.1-0.5l-0.2-1.2c0-0.4-0.2-0.6-0.5-0.6
		c0.1-0.2,0.1-0.3,0.2-0.4c0.1-0.1,0.2-0.1,0.3-0.1c0.1,0,0.3,0.1,0.4,0.3c0.2,0.2,0.3,0.4,0.4,0.6c0.1,0.2,0.2,0.5,0.3,0.8
		c0,0.3,0.1,0.7,0.2,1.3c0.1-0.1,0.2-0.1,0.2-0.2s0.1-0.2,0.1-0.3c0.1-0.3,0.1-0.5,0.2-0.8s0.2-0.6,0.4-1l0.1-0.2
		C126.4,158.1,126.6,157.7,126.7,157.1z"/>
	<path class="st0" d="M130.5,164.7c0-0.3,0-0.5,0.1-0.9c0.1-0.3,0.1-0.7,0.2-1c0.1-0.1,0.1-0.2,0.1-0.2c0-0.1,0-0.2,0-0.3
		s0.1-0.1,0.2-0.2c0.1-0.1,0.2-0.1,0.2-0.1c0.1,0,0.2,0,0.3,0c0.3,0,0.5,0,0.7,0.1s0.4,0.2,0.6,0.3s0.4,0.3,0.7,0.5
		c0.1,0.2,0.2,0.4,0.2,0.6c0,0.3-0.1,0.5-0.2,0.7c-0.1,0.2-0.2,0.3-0.4,0.5c-0.1,0.2-0.3,0.3-0.5,0.4s-0.3,0.2-0.4,0.3
		c-0.1,0.1-0.2,0.1-0.3,0.2s-0.2,0.1-0.2,0.1c-0.1,0-0.3,0.1-0.4,0.1c-0.3,0-0.5-0.1-0.7-0.3C130.6,165.4,130.5,165.1,130.5,164.7z
		 M131.6,162.8c0,0.1-0.1,0.2-0.1,0.4c-0.1,0.3-0.1,0.6-0.2,0.8c0,0.2-0.1,0.4-0.1,0.7c0,0.1,0,0.2,0,0.3c0.4-0.2,0.7-0.3,1-0.5
		s0.5-0.5,0.6-0.8l-0.7-0.5C132.1,163.1,131.9,162.9,131.6,162.8z"/>
	<path class="st0" d="M135.9,164.7c0-0.3,0-0.5,0.1-0.9c0.1-0.3,0.1-0.7,0.2-1c0.1-0.1,0.1-0.2,0.1-0.2c0-0.1,0-0.2,0-0.3
		s0.1-0.1,0.2-0.2c0.1-0.1,0.2-0.1,0.2-0.1c0.1,0,0.2,0,0.3,0c0.3,0,0.5,0,0.7,0.1s0.4,0.2,0.6,0.3s0.4,0.3,0.7,0.5
		c0.1,0.2,0.2,0.4,0.2,0.6c0,0.3-0.1,0.5-0.2,0.7c-0.1,0.2-0.2,0.3-0.4,0.5c-0.1,0.2-0.3,0.3-0.5,0.4s-0.3,0.2-0.4,0.3
		c-0.1,0.1-0.2,0.1-0.3,0.2s-0.2,0.1-0.2,0.1c-0.1,0-0.3,0.1-0.4,0.1c-0.3,0-0.5-0.1-0.7-0.3C136,165.4,135.9,165.1,135.9,164.7z
		 M137,162.8c0,0.1-0.1,0.2-0.1,0.4c-0.1,0.3-0.1,0.6-0.2,0.8c0,0.2-0.1,0.4-0.1,0.7c0,0.1,0,0.2,0,0.3c0.4-0.2,0.7-0.3,1-0.5
		s0.5-0.5,0.6-0.8l-0.7-0.5C137.4,163.1,137.2,162.9,137,162.8z"/>
	<path class="st0" d="M142.4,165.2c0.1,0.4,0.2,0.7,0.4,1c0.1,0.2,0.2,0.3,0.2,0.4c0,0.1-0.1,0.3-0.2,0.4c-0.1,0-0.1,0-0.2,0
		c-0.1,0-0.2,0-0.3-0.1s-0.2-0.1-0.2-0.2c-0.3-0.3-0.4-0.6-0.5-0.9c-0.1-0.3-0.2-0.8-0.3-1.3c-0.1-0.3-0.1-0.7-0.1-1.1s0-0.8,0-1.4
		c0-0.3,0-0.5,0-0.7s0-0.4,0-0.5c0-0.4,0-0.8,0.1-1.2c0-0.1,0-0.2,0.1-0.4c0-0.1,0.1-0.2,0.1-0.3s0-0.1,0-0.2l0.1-0.1h0.1
		c0.1,0,0.1,0.1,0.2,0.2c0.1,0.1,0.1,0.2,0,0.2c-0.1,0.1-0.2,0.3-0.2,0.5c0,0.1,0,0.2,0,0.4c0,0.1,0,0.1,0,0.2c0,1.1,0,1.9,0.1,2.5
		c0,0.5,0,0.8,0.1,1.1l0.4-0.4l0.4-0.4l0.6-0.4l0.9-0.7c0,0,0.1-0.1,0.2-0.2c0.1-0.1,0.1-0.1,0.2-0.2c0.1-0.1,0.1-0.2,0.2-0.2h0.1
		c0.1,0,0.1,0.1,0.1,0.1v0.1v0.1c-0.1,0.2-0.2,0.4-0.3,0.5l-0.4,0.4l-0.8,0.8c-0.3,0.3-0.5,0.5-0.6,0.7c0.1,0.1,0.3,0.1,0.4,0.2
		c0.1,0.1,0.3,0.1,0.5,0.2l0.3,0.1l0.6,0.2c0.5,0.1,0.8,0.2,0.9,0.3c0.2,0.1,0.4,0.2,0.5,0.3s0.2,0.2,0.3,0.4c0,0.1,0,0.1,0,0.2
		c0,0.1,0,0.1,0,0.2c0,0.1-0.1,0.1-0.2,0.2c0,0.1-0.1,0.1-0.2,0.1c-0.1,0-0.1,0-0.2-0.1c-0.2-0.1-0.4-0.2-0.6-0.3s-0.5-0.1-0.8-0.2
		c-0.3-0.1-0.5-0.2-0.7-0.2s-0.4-0.1-0.6-0.2c-0.1,0-0.2-0.1-0.3-0.1c-0.2-0.1-0.2-0.1-0.2-0.1S142.5,165.3,142.4,165.2z"/>
	<path class="st0" d="M153.7,162.7c0-0.2,0.1-0.4,0.2-0.6c0.1-0.2,0.3-0.3,0.5-0.6c0.4-0.3,0.8-0.5,1.2-0.8s0.7-0.4,1.1-0.5
		c0.1,0,0.2,0,0.3,0c0.4,0,0.7,0.2,0.9,0.6c0.2,0.7,0.4,1.4,0.4,2c0,0.2,0,0.4,0.1,0.7c0,0.7,0.1,1.2,0.1,1.5c0,0.2-0.1,0.4-0.2,0.5
		c-0.1,0.1-0.2,0.3-0.4,0.4c0,0-0.1,0.1-0.2,0.1c-0.1,0-0.1,0-0.2-0.1c-0.1,0-0.1-0.1-0.2-0.1c-0.1,0-0.2,0-0.3,0.1
		c-0.2,0.2-0.4,0.3-0.6,0.4s-0.5,0.1-0.8,0.1c-0.1,0-0.2,0-0.4,0c-0.3,0-0.5-0.1-0.8-0.2c-0.2-0.1-0.4-0.3-0.6-0.5
		c0-0.2,0-0.4,0.1-0.5c0.1-0.2,0.2-0.3,0.4-0.5l0.2-0.2c0.5-0.5,0.9-0.9,1.2-1.2s0.6-0.7,0.8-1.1c0-0.1,0-0.1,0-0.2s0.1-0.1,0.1-0.1
		c0.2-0.1,0.2-0.3,0.2-0.4c0-0.1,0-0.1,0-0.2c0-0.1,0-0.2,0-0.2c-0.1,0-0.1,0-0.2,0c-0.1,0-0.1,0-0.1,0.1c-0.5,0.2-0.9,0.4-1.2,0.5
		c-0.3,0.2-0.7,0.3-1,0.6c0,0-0.1,0.1-0.2,0.1c-0.1,0-0.1,0.1-0.2,0.2c-0.1,0.1-0.1,0.2-0.1,0.3c-0.1,0-0.1-0.1-0.1-0.1V162.7v-0.1
		V162.7z M157.2,163.1c-0.8,0.9-1.4,1.7-2,2.3c0.2,0.1,0.3,0.1,0.5,0.1c0.5,0,0.9-0.2,1.3-0.6c0.1-0.1,0.1-0.2,0.1-0.3
		C157.2,164.3,157.2,163.8,157.2,163.1z"/>
	<path class="st0" d="M161.4,163c0-0.2,0.1-0.4,0.2-0.6c0.1-0.2,0.1-0.3,0.2-0.4c0.1-0.1,0.1-0.1,0.2-0.3c0,0,0,0,0.1-0.1
		c0-0.1,0.1-0.1,0.1-0.1c0.1-0.2,0.3-0.3,0.5-0.3s0.4,0.1,0.5,0.3c0.7,0.8,1.2,1.7,1.4,2.6c0.1,0.4,0.2,0.7,0.2,1.1
		c0,0.4-0.1,0.8-0.4,1.2c0,0-0.1,0.1-0.1,0.2c-0.1,0.1-0.1,0.2-0.2,0.3c-0.1-0.3-0.2-0.7-0.2-1c0-0.1,0-0.2-0.1-0.5
		s-0.1-0.5-0.2-0.7c-0.1-0.6-0.4-1.3-0.9-2.1c0,0.1-0.1,0.2-0.2,0.4c-0.1,0.2-0.1,0.4-0.2,0.6c-0.2,0.5-0.5,1.1-0.7,1.9l-0.1,0.1
		c0,0.1-0.1,0.1-0.1,0.2c-0.1,0.1-0.2,0.1-0.3,0.1s-0.3-0.1-0.4-0.2c-0.1-0.1-0.2-0.2-0.2-0.4v-0.7c0-0.2,0-0.4,0-0.6
		c0-0.2,0-0.3,0-0.4c0-0.4,0-0.7,0-1.1c0-0.1,0-0.1,0-0.2c0-0.1,0-0.1,0-0.2c0.1-0.1,0.2-0.2,0.3-0.2s0.1,0,0.2,0.1
		c0,0.1,0.1,0.1,0.1,0.2c0,0.1,0,0.2,0.1,0.2v0.3v0.3C161.3,162.9,161.3,162.9,161.4,163L161.4,163z"/>
	<path class="st0" d="M166.7,164.6c0.1-0.4,0.2-0.7,0.4-0.9c0.2-0.3,0.5-0.5,0.8-0.8c0.6-0.4,1.3-0.7,2.2-0.8h0.4v-0.9l0.1-0.7
		c0-0.4,0-0.7,0.1-1V159c0-0.2,0.1-0.3,0.2-0.4c0.1-0.2,0.2-0.3,0.3-0.3s0.1,0,0.1,0.1c0.1,0.1,0.2,0.2,0.3,0.3s0.1,0.2,0.1,0.3
		s0,0.3,0,0.4c0,0.1,0,0.2,0,0.3c0,0.3,0,0.6,0,0.7c0,1.2,0,2.2,0.1,2.8c0.1,0.7,0.3,1.4,0.6,2.1c0,0.1,0.1,0.1,0.1,0.1
		s0.1,0.1,0.2,0.1c0.1,0.1,0.1,0.3,0.1,0.5c0,0.1,0,0.2-0.1,0.3s-0.2,0.1-0.3,0.1c-0.5,0-0.8-0.3-1.1-0.9c0-0.1-0.1-0.2-0.1-0.3
		s-0.1-0.2-0.1-0.2c0-0.1,0-0.2,0-0.3s-0.1-0.2-0.1-0.2s-0.1,0.1-0.2,0.2c-0.1,0.1-0.2,0.1-0.2,0.2c-0.4,0.5-1,0.9-1.8,1.3
		c-0.1,0.1-0.2,0.1-0.4,0.1s-0.4,0-0.6-0.1s-0.4-0.2-0.5-0.3c-0.1-0.2-0.2-0.3-0.3-0.4c-0.1-0.1-0.2-0.2-0.2-0.3
		C166.8,164.9,166.7,164.7,166.7,164.6z M170.5,162.7C170.5,162.7,170.4,162.7,170.5,162.7c-0.1,0-0.1,0-0.1,0s0,0-0.1,0
		c-0.4,0-0.7,0.1-1.1,0.3c-0.4,0.2-0.7,0.4-1,0.6c-0.3,0.3-0.4,0.5-0.5,0.8c0,0.1,0,0.1,0,0.1c0,0.1,0,0.2,0.1,0.3s0.1,0.2,0.1,0.2
		c0.1,0.1,0.1,0.2,0.2,0.2c0,0,0.1,0,0.2-0.1c0.2-0.2,0.5-0.3,0.7-0.5s0.5-0.4,0.9-0.7C170.2,163.6,170.4,163.2,170.5,162.7z"/>
	<path class="st0" d="M179.9,162.7c0-0.2,0.1-0.4,0.2-0.6s0.3-0.3,0.5-0.6c0.4-0.3,0.8-0.5,1.2-0.8s0.7-0.4,1.1-0.5
		c0.1,0,0.2,0,0.3,0c0.4,0,0.7,0.2,0.9,0.6c0.2,0.7,0.4,1.4,0.4,2c0,0.2,0,0.4,0.1,0.7c0,0.7,0.1,1.2,0.1,1.5c0,0.2-0.1,0.4-0.2,0.5
		c-0.1,0.1-0.2,0.3-0.4,0.4c0,0-0.1,0.1-0.2,0.1c-0.1,0-0.1,0-0.2-0.1c-0.1,0-0.1-0.1-0.2-0.1c-0.1,0-0.2,0-0.3,0.1
		c-0.2,0.2-0.4,0.3-0.6,0.4s-0.5,0.1-0.8,0.1c-0.1,0-0.2,0-0.4,0c-0.3,0-0.5-0.1-0.8-0.2c-0.2-0.1-0.4-0.3-0.6-0.5
		c0-0.2,0-0.4,0.1-0.5c0.1-0.2,0.2-0.3,0.4-0.5l0.2-0.2c0.5-0.5,0.9-0.9,1.2-1.2s0.6-0.7,0.8-1.1c0-0.1,0-0.1,0-0.2s0.1-0.1,0.1-0.1
		c0.2-0.1,0.2-0.3,0.2-0.4c0-0.1,0-0.1,0-0.2c0-0.1,0-0.2,0-0.2c-0.1,0-0.1,0-0.2,0c-0.1,0-0.1,0-0.1,0.1c-0.5,0.2-0.9,0.4-1.2,0.5
		c-0.3,0.2-0.7,0.3-1,0.6c0,0-0.1,0.1-0.2,0.1s-0.1,0.1-0.2,0.2c-0.1,0.1-0.1,0.2-0.1,0.3c-0.1,0-0.1-0.1-0.1-0.1V162.7v-0.1V162.7z
		 M183.4,163.1c-0.8,0.9-1.4,1.7-2,2.3c0.2,0.1,0.3,0.1,0.5,0.1c0.5,0,0.9-0.2,1.3-0.6c0.1-0.1,0.1-0.2,0.1-0.3
		C183.4,164.3,183.4,163.8,183.4,163.1z"/>
	<path class="st0" d="M194.1,165.1c0.1,0,0.2,0,0.3,0s0.2,0,0.3,0.1c0.2,0,0.3,0,0.4,0s0.1-0.1,0.2-0.1c0.5-0.4,1-0.9,1.4-1.3
		l0.1-0.1l0.1-0.1c0-0.1,0.1-0.1,0.1-0.2c-0.2-0.1-0.7-0.4-1.3-0.8l-0.4-0.2c-0.1-0.1-0.4-0.3-0.9-0.6l-0.5-0.3
		c-0.3-0.1-0.5-0.3-0.8-0.5c-0.2-0.2-0.5-0.5-0.6-0.8c-0.2-0.2-0.4-0.6-0.4-1s0.1-0.8,0.4-1l0.1-0.1l0.1-0.1c0,0,0.1,0,0.2,0
		c0.9-0.4,2-0.7,3.1-0.7c0.2,0,0.3,0,0.4,0c0.1,0,0.1,0,0.2,0c0.1,0,0.1,0,0.1,0c0.2,0,0.4,0.2,0.4,0.3s0,0.1,0,0.2c0,0-0.1,0-0.2,0
		c-0.1,0-0.2,0-0.2,0c-0.4,0-0.8,0-1.1,0.1c-0.4,0.1-0.9,0.2-1.4,0.4c-0.1,0-0.1,0-0.2,0.1c-0.1,0-0.2,0.1-0.2,0.2
		c-0.2,0.1-0.3,0.2-0.3,0.4c0,0.1,0.1,0.2,0.2,0.3c0.2,0.2,0.6,0.5,1.1,0.8c0.2,0.2,0.6,0.4,1.1,0.7c0.3,0.2,0.5,0.3,0.6,0.4
		c0.5,0.3,1,0.7,1.7,1.1c0.1,0.1,0.1,0.2,0.2,0.3c0.1,0.1,0.1,0.2,0.2,0.4v0.1c0.1,0.1,0.1,0.3,0.1,0.4c0,0.2-0.1,0.5-0.3,0.8
		c-0.1,0.2-0.3,0.4-0.5,0.6c-0.2,0.2-0.4,0.4-0.6,0.5c-0.1,0-0.2,0.1-0.4,0.3c-0.2,0.1-0.3,0.2-0.4,0.3c-0.1,0.1-0.3,0.2-0.5,0.2
		s-0.4,0.1-0.6,0.1c-0.1,0-0.2,0-0.2,0c-0.2-0.1-0.4-0.3-0.6-0.5C194.2,165.7,194.1,165.4,194.1,165.1z"/>
	<path class="st0" d="M200.4,160.3c0-0.1,0.1-0.2,0.2-0.3c0.1-0.1,0.2-0.2,0.3-0.2c0.1-0.1,0.2-0.2,0.3-0.2s0.2,0.1,0.3,0.2
		c0,0,0,0.1,0.1,0.1c0,0,0.1,0,0.1,0.1c-0.2,0.6-0.6,1-1.2,1.2c-0.1-0.2-0.2-0.3-0.2-0.5C200.3,160.6,200.4,160.5,200.4,160.3z
		 M201.1,167c-0.1-0.2-0.2-0.3-0.3-0.5c-0.1-0.1-0.1-0.4-0.2-0.6c0-0.1,0-0.1,0-0.2s0-0.2,0-0.2c0-0.1,0-0.2,0-0.2
		c0-0.4-0.1-0.9-0.3-1.4c0-0.1,0-0.2,0-0.3s0-0.2,0-0.3c0-0.2,0-0.3,0.1-0.4c0,0,0.1,0,0.2,0c0.1,0,0.2,0,0.2,0.1c0,0,0.1,0,0.1,0.1
		s0.1,0.1,0.1,0.1c0.5,0.6,0.7,1.4,0.7,2.3c0,0.2,0,0.3,0,0.4c0,0.1-0.1,0.3-0.1,0.4c-0.1,0.1-0.2,0.3-0.3,0.5L201.1,167z"/>
	<path class="st0" d="M205.1,160.8C205.1,160.8,205.1,160.7,205.1,160.8c-0.1-0.1-0.1-0.1-0.1-0.1c-0.4-0.1-0.6-0.1-0.7-0.1
		c-0.1,0.2-0.2,0.3-0.2,0.4c-0.1-0.2-0.2-0.3-0.2-0.5c0-0.1,0-0.2,0.1-0.2c0.1-0.1,0.2-0.1,0.3-0.1s0.3-0.1,0.6-0.1
		c0.2,0,0.4,0,0.6,0.1c0.6,0.1,1.1,0.4,1.6,0.8c0.4,0.4,0.6,0.9,0.6,1.3c0,0.3-0.1,0.7-0.4,1.1c-0.2,0.2-0.4,0.4-0.7,0.7l-0.4,0.4
		c-0.1,0.1-0.1,0.1-0.1,0.2c0,0.1,0,0.1,0,0.2s0,0.1,0,0.1c0,0.2,0,0.3,0,0.5c0,0.1,0,0.2,0,0.5s0,0.5,0,0.7s0,0.4,0,0.5
		s-0.1,0.3-0.2,0.4c-0.1,0.2-0.3,0.3-0.4,0.3c-0.1,0-0.1,0-0.2-0.1c-0.1,0-0.1-0.1-0.2-0.1c0-0.1-0.1-0.1-0.1-0.2s0-0.2,0.1-0.2
		c0.1-0.3,0.1-0.5,0.1-0.8c0-0.2,0-0.4-0.1-0.6l-0.1-1.3c0-0.3-0.1-0.6-0.1-1.1c0-0.4-0.1-0.9-0.1-1.4c0-0.1,0-0.2-0.1-0.3
		s-0.1-0.2-0.1-0.3s0-0.1,0-0.2C204.6,160.9,204.7,160.8,205.1,160.8L205.1,160.8z M205.1,160.8c0.1,0.1,0.2,0.2,0.3,0.3
		s0.1,0.3,0.1,0.5c0,0.3,0.1,0.5,0.2,0.8c0,0.1,0,0.3,0.1,0.5c0,0.1,0.1,0.3,0.1,0.4c0-0.1,0.1-0.1,0.1-0.2c0.1-0.1,0.1-0.1,0.1-0.1
		c0.2-0.2,0.3-0.4,0.5-0.7c0.1-0.1,0.1-0.2,0.1-0.4c0-0.1,0-0.3-0.1-0.4s-0.2-0.2-0.3-0.3c-0.2-0.2-0.4-0.4-0.6-0.4
		c0,0-0.1-0.1-0.2-0.1c-0.1-0.1-0.2-0.1-0.2-0.1C205.2,160.7,205.2,160.7,205.1,160.8z"/>
	<path class="st0" d="M214.9,164.7c0-0.3,0-0.5,0.1-0.9c0.1-0.3,0.1-0.7,0.2-1c0.1-0.1,0.1-0.2,0.1-0.2c0-0.1,0-0.2,0-0.3
		s0.1-0.1,0.2-0.2s0.2-0.1,0.2-0.1c0.1,0,0.2,0,0.3,0c0.3,0,0.5,0,0.7,0.1s0.4,0.2,0.6,0.3c0.2,0.1,0.4,0.3,0.7,0.5
		c0.1,0.2,0.2,0.4,0.2,0.6c0,0.3-0.1,0.5-0.2,0.7c-0.1,0.2-0.2,0.3-0.4,0.5c-0.1,0.2-0.3,0.3-0.5,0.4s-0.3,0.2-0.4,0.3
		c-0.1,0.1-0.2,0.1-0.3,0.2s-0.2,0.1-0.2,0.1c-0.1,0-0.3,0.1-0.4,0.1c-0.3,0-0.5-0.1-0.7-0.3C215,165.4,214.9,165.1,214.9,164.7z
		 M216.1,162.8c0,0.1-0.1,0.2-0.1,0.4c-0.1,0.3-0.1,0.6-0.2,0.8c0,0.2-0.1,0.4-0.1,0.7c0,0.1,0,0.2,0,0.3c0.4-0.2,0.7-0.3,1-0.5
		s0.5-0.5,0.6-0.8l-0.7-0.5C216.5,163.1,216.3,162.9,216.1,162.8z"/>
	<path class="st0" d="M223.1,157.9L223.1,157.9c0.2,0,0.3,0.1,0.4,0.1c0.1,0,0.2,0,0.3,0c0.3,0,0.5,0.2,0.6,0.6h-1.1
		c-0.3,0-0.5,0.1-0.7,0.2s-0.2,0.3-0.3,0.6c0,0.2,0,0.4-0.1,0.7c-0.1,0.8-0.1,1.4-0.1,1.8c0.1,0,0.2,0,0.4,0h0.4c0.2,0,0.3,0,0.4,0
		c0.1,0,0.3,0.1,0.4,0.1c0,0,0.1,0,0.2,0s0.2,0,0.2,0h0.1l0.1,0.1l0.1,0.1c0.1,0.1,0.1,0.2,0.1,0.3s-0.1,0.2-0.3,0.3
		c-0.1,0-0.1,0.1-0.2,0.1c-0.1,0-0.1,0-0.2,0c-0.1,0-0.3,0-0.4,0c-0.1,0-0.2,0-0.3,0.1c-0.1,0-0.3,0.1-0.5,0.1s-0.4,0-0.5,0
		c0,0.3,0.1,0.5,0.2,0.8l0.2,0.6l0.3,1.2c0,0.1,0.1,0.2,0.1,0.4c0,0.1,0,0.3,0,0.5c0,0.1,0,0.2-0.1,0.3s-0.2,0.2-0.3,0.2h-0.1
		c-0.1,0-0.1,0-0.1,0s-0.1,0-0.1-0.1c0,0-0.1-0.1-0.2-0.1c-0.1-0.1-0.1-0.1-0.2-0.2c0-0.1-0.1-0.1-0.1-0.2c0-0.1,0-0.2,0-0.4
		c0-0.1,0-0.3,0-0.4c0-0.2-0.1-0.3-0.1-0.5c0-0.1-0.1-0.2-0.1-0.5l-0.2-0.7c-0.1-0.4-0.2-0.6-0.2-0.8c0,0-0.1-0.1-0.2-0.1
		c0,0-0.1-0.1-0.2-0.1c-0.1-0.1-0.2-0.1-0.3-0.2c-0.1-0.1-0.1-0.1-0.1-0.3c0-0.1,0-0.2,0.1-0.3s0.1-0.2,0.2-0.2l0.1-0.1
		c0.1,0,0.2,0,0.3-0.1c0.1,0,0.1-0.1,0.1-0.3c0-0.1,0-0.2,0-0.2c0-0.8,0.1-1.5,0.3-2.2c0.1-0.3,0.2-0.5,0.3-0.7
		c0.3-0.4,0.7-0.6,1.1-0.6h0.1C222.9,157.8,223,157.9,223.1,157.9z"/>
	<path class="st0" d="M239,165.4c-0.2,0.1-0.4,0.2-0.6,0.2c-0.3,0-0.5-0.1-0.8-0.3c-0.2-0.1-0.4-0.2-0.5-0.3s-0.4-0.2-0.5-0.4
		c-0.3-0.2-0.5-0.4-0.6-0.5s-0.3-0.3-0.6-0.5c-0.3-0.3-0.5-0.5-0.7-0.6c-0.2-0.2-0.5-0.4-0.7-0.5c0,0,0,0-0.1-0.1h-0.1
		c0,0,0,0-0.1,0c0,0-0.1,0-0.1,0.1s0,0.1,0,0.1c0,0.1,0,0.1,0,0.1s0,0.1,0.1,0.1c0,0.1,0,0.2,0.1,0.4c0,0.2,0.1,0.4,0.2,0.6
		c0,0.1,0.1,0.2,0.1,0.3s0,0.2,0,0.3v0.1c0,0,0,0.1,0,0.2c0,0.1,0,0.1,0,0.2c0,0-0.1,0.1-0.2,0.1c-0.1,0-0.3,0-0.3,0
		c-0.1,0-0.1-0.1-0.2-0.2c-0.1-0.2-0.1-0.4-0.1-0.5c0-0.3-0.1-0.6-0.2-0.9c-0.1-0.3-0.1-0.5-0.1-0.6c-0.1-0.4-0.2-0.6-0.2-0.9
		c-0.1-0.2-0.1-0.5-0.1-0.7v-1.6c0.1-0.1,0.1-0.1,0.1-0.1c0-0.1,0-0.1,0.1-0.2s0.1-0.1,0.2-0.1c0.1,0,0.1,0,0.2,0
		c0.1,0.1,0.1,0.1,0.1,0.2c0,0,0.1,0.2,0.1,0.4c0.1,0.5,0.1,0.9,0.1,1.3c0.1,0.1,0.1,0.1,0.1,0.1c0.3-0.2,0.6-0.5,0.9-0.8l0.5-0.7
		c0.4-0.5,0.6-0.8,0.5-0.7c0.1-0.1,0.1-0.2,0.2-0.3c0-0.1,0.1-0.2,0.1-0.3v-0.1c0-0.1,0-0.1-0.1-0.2c0,0-0.1-0.1-0.2-0.1
		c-0.3,0-0.7-0.1-1.2-0.1s-0.9,0-1.2,0.1c-0.1,0-0.2,0-0.3,0s-0.1,0.1-0.2,0.2s-0.1,0.1-0.1,0.2c0,0.1,0,0.2,0,0.2s-0.1,0.1-0.2,0.1
		c-0.1,0-0.1,0-0.1-0.1s-0.1-0.1-0.1-0.2c0-0.2,0-0.4,0.1-0.5s0.2-0.2,0.4-0.3c0.5-0.1,1-0.2,1.5-0.2c0.2,0,0.4-0.1,0.7-0.1
		s0.5,0,0.7,0.1c0.3,0,0.6,0.1,0.8,0.4s0.3,0.5,0.3,0.8c0,0.1,0,0.2,0,0.4c-0.1,0.4-0.3,0.7-0.5,1s-0.5,0.7-0.8,1.1l-0.3,0.3
		c-0.1,0.1-0.2,0.2-0.2,0.3l0.1,0.1c0.3,0.2,0.6,0.5,1.2,0.9c0.6,0.5,1.1,0.8,1.4,1.1l0.4,0.2c0.3,0.2,0.6,0.4,0.9,0.5
		c0.1,0,0.1,0.1,0.2,0.1c0,0,0,0,0.1,0l0.1,0.1c0.1,0.2,0.1,0.3,0.1,0.4C239.1,165.2,239,165.3,239,165.4z"/>
	<path class="st0" d="M241,163.8c0-1,0.2-1.8,0.5-2.5c0.2-0.3,0.4-0.5,0.7-0.5c0.2,0,0.4,0.1,0.6,0.2c0.2,0.2,0.3,0.4,0.4,0.6
		c0.1,0.2,0.2,0.5,0.2,0.7c0,0.1,0,0.3,0,0.4c0,0.3-0.1,0.5-0.3,0.7c-0.1,0.2-0.3,0.4-0.6,0.6l-0.1,0.1l-0.1,0.1
		c0,0.2,0.1,0.3,0.2,0.5c0.1,0.1,0.2,0.2,0.4,0.4c0.3,0.2,0.4,0.4,0.5,0.6c-0.1,0.1-0.2,0.2-0.3,0.2c-0.1,0.1-0.2,0.1-0.3,0.1
		s-0.3-0.1-0.5-0.2c-0.2-0.1-0.4-0.1-0.5-0.2c-0.1-0.1-0.3-0.3-0.5-0.5c-0.1-0.2-0.2-0.4-0.3-0.6C241.1,164.3,241,164,241,163.8z
		 M242.2,163.4c0.2-0.1,0.4-0.3,0.5-0.5s0.2-0.4,0.2-0.7c0-0.2,0-0.3-0.1-0.5c-0.1-0.1-0.1-0.3-0.2-0.3c-0.1,0.2-0.2,0.4-0.3,0.7
		s-0.1,0.5-0.1,0.7C242.1,163.1,242.1,163.3,242.2,163.4z"/>
	<path class="st0" d="M246.8,164.5c0.4-0.5,0.7-0.9,0.9-1.3c0.2-0.4,0.4-0.8,0.5-1.2v-0.4c0-0.1,0.1-0.3,0.2-0.4
		c0.1-0.1,0.2-0.2,0.3-0.2c0.2,0,0.4,0.1,0.6,0.4c0.1,0.1,0.1,0.3,0.1,0.5s-0.1,0.5-0.2,0.7c-0.2,0.7-0.6,1.4-1.1,2.1
		c-0.1,0.1-0.2,0.3-0.4,0.6c0,0-0.1,0.1-0.2,0.4c-0.1,0.1-0.1,0.1-0.2,0.2s-0.2,0.1-0.3,0.1c-0.2,0-0.3-0.1-0.4-0.2
		c-0.2-0.2-0.3-0.4-0.4-0.6s-0.2-0.5-0.3-0.8c-0.2-0.4-0.3-0.8-0.3-1.1c-0.1-0.3-0.1-0.6-0.1-0.9c0-0.1,0-0.3,0-0.4
		c0-0.1,0-0.2,0-0.2c0-0.1,0-0.1,0.1-0.2c0,0,0-0.1,0.1-0.1s0.1-0.1,0.1-0.1s0.1,0,0.1,0.1v0.1c0,0.1,0.1,0.2,0.1,0.4
		C246.1,162.7,246.3,163.6,246.8,164.5z"/>
	<path class="st0" d="M251.5,160.3c0-0.1,0.1-0.2,0.2-0.3c0.1-0.1,0.2-0.2,0.3-0.2c0.1-0.1,0.2-0.2,0.3-0.2s0.2,0.1,0.3,0.2
		c0,0,0,0.1,0.1,0.1c0,0,0.1,0,0.1,0.1c-0.2,0.6-0.6,1-1.2,1.2c-0.1-0.2-0.2-0.3-0.2-0.5C251.4,160.6,251.4,160.5,251.5,160.3z
		 M252.2,167c-0.1-0.2-0.2-0.3-0.3-0.5c-0.1-0.1-0.1-0.4-0.2-0.6c0-0.1,0-0.1,0-0.2s0-0.2,0-0.2c0-0.1,0-0.2,0-0.2
		c0-0.4-0.1-0.9-0.3-1.4c0-0.1,0-0.2,0-0.3s0-0.2,0-0.3c0-0.2,0-0.3,0.1-0.4c0,0,0.1,0,0.2,0c0.1,0,0.2,0,0.2,0.1c0,0,0.1,0,0.1,0.1
		s0.1,0.1,0.1,0.1c0.5,0.6,0.7,1.4,0.7,2.3c0,0.2,0,0.3,0,0.4c0,0.1-0.1,0.3-0.1,0.4c-0.1,0.1-0.2,0.3-0.3,0.5L252.2,167z"/>
	<path class="st0" d="M254.9,163.8c0-1,0.2-1.8,0.5-2.5c0.2-0.3,0.4-0.5,0.7-0.5c0.2,0,0.4,0.1,0.6,0.2c0.2,0.2,0.3,0.4,0.4,0.6
		c0.1,0.2,0.2,0.5,0.2,0.7c0,0.1,0,0.3,0,0.4c0,0.3-0.1,0.5-0.3,0.7c-0.1,0.2-0.3,0.4-0.6,0.6l-0.1,0.1l-0.1,0.1
		c0,0.2,0.1,0.3,0.2,0.5c0.1,0.1,0.2,0.2,0.4,0.4c0.3,0.2,0.4,0.4,0.5,0.6c-0.1,0.1-0.2,0.2-0.3,0.2c-0.1,0.1-0.2,0.1-0.3,0.1
		s-0.3-0.1-0.5-0.2c-0.2-0.1-0.4-0.1-0.5-0.2c-0.1-0.1-0.3-0.3-0.5-0.5c-0.1-0.2-0.2-0.4-0.3-0.6C254.9,164.3,254.9,164,254.9,163.8
		z M256,163.4c0.2-0.1,0.4-0.3,0.5-0.5s0.2-0.4,0.2-0.7c0-0.2,0-0.3-0.1-0.5c-0.1-0.1-0.1-0.3-0.2-0.3c-0.1,0.2-0.2,0.4-0.3,0.7
		s-0.1,0.5-0.1,0.7C255.9,163.1,256,163.3,256,163.4z"/>
	<path class="st0" d="M263.1,164.6c0.1-0.5,0.3-0.9,0.5-1.4l0.2-0.4l0.2-0.5l0.3-0.9c0-0.1,0.1-0.2,0.1-0.2c0.1-0.1,0.1-0.1,0.2-0.2
		c0,0,0,0,0.1,0c0,0,0.1,0,0.1-0.1c0.4,0.2,0.6,0.5,0.6,0.8c0,0.1,0,0.3-0.1,0.5l-0.2,0.7c-0.3,1-0.6,1.7-0.7,2
		c-0.1,0.2-0.1,0.3-0.2,0.4c-0.1,0.1-0.2,0.3-0.3,0.5c-0.1,0.1-0.2,0.2-0.5,0.2c-0.2,0-0.4-0.1-0.6-0.2c-0.2-0.1-0.3-0.3-0.4-0.4
		c-0.1-0.2-0.3-0.4-0.4-0.6l-0.2-0.2c0-0.1-0.1-0.1-0.1-0.2c0-0.1-0.1-0.1-0.1-0.2c-0.1-0.2-0.2-0.4-0.3-0.6
		c-0.2,0.5-0.3,0.9-0.4,1.1c0,0.1,0,0.1,0,0.2c0,0.1,0,0.1,0,0.1l-0.1,0.3c-0.1,0.1-0.1,0.2-0.1,0.2s-0.1,0.1-0.2,0.1s-0.2,0-0.3,0
		s-0.1-0.1-0.2-0.2c-0.1-0.2-0.2-0.4-0.4-0.8l-0.1-0.4c-0.1-0.2-0.1-0.5-0.1-0.8v-0.5c0-0.1,0-0.3,0-0.5c0-0.1,0-0.2,0-0.4
		s0.1-0.4,0.1-0.6c0,0,0-0.1,0.1-0.1c0-0.1,0-0.1,0.1-0.1h0.1c0.1,0,0.1,0,0.2,0.1v0.1v0.2v1.2c0,0.2,0,0.5,0.1,0.8
		c0,0.1,0,0.2,0.1,0.4c0,0,0-0.1,0.1-0.1c0-0.1,0.1-0.1,0.1-0.2c0.4-0.9,0.6-1.6,0.8-2c0,0,0.1-0.1,0.1-0.2s0-0.1,0-0.1
		s0-0.1,0.1-0.1l0.1-0.1h0.1h0.1c0.1,0,0.2,0.1,0.3,0.1c0.1,0.1,0.1,0.1,0.1,0.2c0,0.1,0,0.2,0.1,0.4c0,0.2,0.1,0.4,0.1,0.6
		c0,0.1,0,0.1,0,0.2c0,0.3,0.1,0.7,0.2,1C262.5,163.9,262.8,164.2,263.1,164.6z"/>
</g>
</svg>
