<svg width="50" height="50" viewBox="0 0 50 50" fill="none" xmlns="http://www.w3.org/2000/svg">
<path d="M22.1525 0C34.3807 0 44.3051 9.92434 44.3051 22.1525C44.3051 34.3807 34.3807 44.3051 22.1525 44.3051C9.92434 44.3051 0 34.3807 0 22.1525C0 9.92434 9.92434 0 22.1525 0ZM22.1525 39.3823C31.672 39.3823 39.3823 31.672 39.3823 22.1525C39.3823 12.6331 31.672 4.92279 22.1525 4.92279C12.6331 4.92279 4.92279 12.6331 4.92279 22.1525C4.92279 31.672 12.6331 39.3823 22.1525 39.3823ZM43.0382 39.5573L50 46.5191L46.5191 50L39.5573 43.0382L43.0382 39.5573Z" fill="#557A46"/>
</svg>
