<svg width="21" height="25" viewBox="0 0 21 25" fill="none" xmlns="http://www.w3.org/2000/svg">
<path d="M20.8449 5.69699V7.01528C20.8449 8.11949 20.4055 9.06596 19.628 9.61807C19.1434 9.97864 18.5462 10.1477 17.9265 10.1477C17.5434 10.1477 17.1604 10.0913 16.7661 9.9561L10.7042 7.93921V18.9025C10.7042 21.8546 8.30407 24.2545 5.35205 24.2545C2.39997 24.2545 0 21.8546 0 18.9025C0 15.9504 2.39997 13.5504 5.35205 13.5504C6.77175 13.5504 8.0563 14.1138 9.01404 15.0152V3.128C9.01404 2.03506 9.46473 1.08859 10.2422 0.525215C11.0195 -0.0268915 12.0561 -0.150834 13.0927 0.187191L18.0731 1.85478C19.6055 2.36181 20.8449 4.08574 20.8449 5.69699Z" fill="white"/>
</svg>
