<svg width="30" height="27" viewBox="0 0 30 27" fill="none" xmlns="http://www.w3.org/2000/svg">
<g filter="url(#filter0_i_332_202)">
<path d="M21.66 0C18.945 0 16.515 1.56623 15 3.59123C13.485 1.56623 11.055 0 8.34 0C3.735 0 0 3.75 0 8.385C0 10.17 0.285 11.8201 0.78 13.3501C3.15 20.8501 10.455 25.3351 14.07 26.5651C14.58 26.7451 15.42 26.7451 15.93 26.5651C19.545 25.3351 26.85 20.8501 29.22 13.3501C29.715 11.8201 30 10.17 30 8.385C30 3.75 26.265 0 21.66 0Z" fill="#CFCFCF"/>
</g>
<defs>
<filter id="filter0_i_332_202" x="0" y="0" width="30" height="28.7" filterUnits="userSpaceOnUse" color-interpolation-filters="sRGB">
<feFlood flood-opacity="0" result="BackgroundImageFix"/>
<feBlend mode="normal" in="SourceGraphic" in2="BackgroundImageFix" result="shape"/>
<feColorMatrix in="SourceAlpha" type="matrix" values="0 0 0 0 0 0 0 0 0 0 0 0 0 0 0 0 0 0 127 0" result="hardAlpha"/>
<feOffset dy="2"/>
<feGaussianBlur stdDeviation="1.5"/>
<feComposite in2="hardAlpha" operator="arithmetic" k2="-1" k3="1"/>
<feColorMatrix type="matrix" values="0 0 0 0 0 0 0 0 0 0 0 0 0 0 0 0 0 0 0.25 0"/>
<feBlend mode="normal" in2="shape" result="effect1_innerShadow_332_202"/>
</filter>
</defs>
</svg>
